<svg width="100" height="32" viewBox="0 0 100 32" fill="none" xmlns="http://www.w3.org/2000/svg">
<path d="M89.546 25.6818V12.1818H92.2307V13.8309H92.3521C92.4714 13.5667 92.644 13.2983 92.8699 13.0255C93.1 12.7486 93.3983 12.5184 93.7648 12.3352C94.1355 12.1477 94.5957 12.054 95.1455 12.054C95.8614 12.054 96.5219 12.2415 97.127 12.6165C97.7321 12.9872 98.2158 13.5476 98.578 14.2976C98.9402 15.0433 99.1213 15.9787 99.1213 17.1037C99.1213 18.1988 98.9445 19.1236 98.5908 19.8778C98.2413 20.6278 97.7641 21.1967 97.1589 21.5845C96.5581 21.968 95.8848 22.1598 95.1391 22.1598C94.6107 22.1598 94.1611 22.0724 93.7903 21.8977C93.4239 21.723 93.1234 21.5035 92.8891 21.2393C92.6547 20.9709 92.4757 20.7003 92.3521 20.4275H92.269V25.6818H89.546ZM92.2115 17.0909C92.2115 17.6747 92.2925 18.1839 92.4544 18.6186C92.6163 19.0532 92.8507 19.392 93.1575 19.6349C93.4643 19.8736 93.8372 19.9929 94.2761 19.9929C94.7193 19.9929 95.0943 19.8714 95.4011 19.6285C95.708 19.3814 95.9402 19.0405 96.0979 18.6058C96.2598 18.1669 96.3408 17.6619 96.3408 17.0909C96.3408 16.5241 96.2619 16.0255 96.1043 15.5951C95.9466 15.1648 95.7143 14.8281 95.4075 14.5852C95.1007 14.3423 94.7236 14.2209 94.2761 14.2209C93.833 14.2209 93.458 14.338 93.1511 14.5724C92.8486 14.8068 92.6163 15.1392 92.4544 15.5696C92.2925 16 92.2115 16.5071 92.2115 17.0909Z" fill="#FDFDFC"/>
<path d="M82.7043 22.1853C82.0779 22.1853 81.5197 22.0767 81.0296 21.8594C80.5396 21.6378 80.1518 21.3118 79.8663 20.8814C79.585 20.4467 79.4444 19.9055 79.4444 19.2578C79.4444 18.7123 79.5445 18.2542 79.7448 17.8835C79.9451 17.5128 80.2178 17.2145 80.563 16.9886C80.9082 16.7628 81.3002 16.5923 81.7391 16.4773C82.1823 16.3622 82.6468 16.2812 83.1326 16.2344C83.7036 16.1747 84.1639 16.1193 84.5133 16.0682C84.8627 16.0128 85.1163 15.9318 85.2739 15.8253C85.4316 15.7187 85.5104 15.5611 85.5104 15.3523V15.3139C85.5104 14.9091 85.3826 14.5959 85.1269 14.3743C84.8755 14.1527 84.5175 14.0419 84.0531 14.0419C83.563 14.0419 83.1731 14.1505 82.8833 14.3679C82.5935 14.5809 82.4018 14.8494 82.308 15.1733L79.7896 14.9687C79.9174 14.3721 80.1688 13.8565 80.5438 13.4219C80.9188 12.9829 81.4025 12.6463 81.9948 12.4119C82.5914 12.1733 83.2818 12.054 84.0658 12.054C84.6113 12.054 85.1333 12.1179 85.6319 12.2457C86.1347 12.3736 86.5801 12.5717 86.9678 12.8402C87.3599 13.1086 87.6688 13.4538 87.8947 13.8757C88.1205 14.2933 88.2335 14.794 88.2335 15.3778V22H85.6511V20.6385H85.5744C85.4167 20.9453 85.2058 21.2159 84.9416 21.4503C84.6774 21.6804 84.3599 21.8615 83.9891 21.9936C83.6184 22.1214 83.1901 22.1853 82.7043 22.1853ZM83.4842 20.3061C83.8847 20.3061 84.2384 20.2273 84.5452 20.0696C84.8521 19.9076 85.0928 19.6903 85.2675 19.4176C85.4423 19.1449 85.5296 18.8359 85.5296 18.4907V17.4488C85.4444 17.5042 85.3272 17.5554 85.1781 17.6023C85.0332 17.6449 84.8691 17.6853 84.6859 17.7237C84.5026 17.7578 84.3194 17.7898 84.1362 17.8196C83.9529 17.8451 83.7867 17.8686 83.6376 17.8899C83.318 17.9368 83.0389 18.0113 82.8002 18.1136C82.5616 18.2159 82.3762 18.3544 82.2441 18.5291C82.112 18.6996 82.046 18.9126 82.046 19.1683C82.046 19.539 82.1802 19.8224 82.4487 20.0184C82.7214 20.2102 83.0666 20.3061 83.4842 20.3061Z" fill="#FDFDFC"/>
<path d="M67.3309 22L64.659 12.1818H67.414L68.9353 18.7784H69.0248L70.61 12.1818H73.3138L74.9246 18.7401H75.0077L76.5035 12.1818H79.252L76.5866 22H73.7037L72.0162 15.8253H71.8948L70.2073 22H67.3309Z" fill="#FDFDFC"/>
<path d="M64.2557 14.9815L61.7628 15.1349C61.7202 14.9219 61.6285 14.7301 61.4879 14.5596C61.3473 14.3849 61.1619 14.2464 60.9318 14.1442C60.706 14.0376 60.4354 13.9844 60.12 13.9844C59.6981 13.9844 59.3423 14.0738 59.0525 14.2528C58.7628 14.4275 58.6179 14.6619 58.6179 14.9559C58.6179 15.1903 58.7116 15.3885 58.8991 15.5504C59.0866 15.7123 59.4084 15.8423 59.8643 15.9403L61.6413 16.2983C62.5959 16.4943 63.3075 16.8096 63.7763 17.2443C64.245 17.679 64.4794 18.25 64.4794 18.9574C64.4794 19.6008 64.2898 20.1655 63.9105 20.6513C63.5355 21.1371 63.0199 21.5163 62.3636 21.789C61.7116 22.0575 60.9595 22.1917 60.1072 22.1917C58.8075 22.1917 57.772 21.9211 57.0007 21.38C56.2337 20.8345 55.7841 20.093 55.652 19.1555L58.3302 19.0149C58.4112 19.4112 58.6072 19.7138 58.9183 19.9226C59.2294 20.1271 59.6278 20.2294 60.1136 20.2294C60.5909 20.2294 60.9744 20.1378 61.2642 19.9545C61.5582 19.767 61.7074 19.5263 61.7116 19.2322C61.7074 18.9851 61.603 18.7826 61.3984 18.625C61.1939 18.463 60.8785 18.3395 60.4524 18.2542L58.7521 17.9155C57.7933 17.7237 57.0795 17.3913 56.6108 16.9183C56.1463 16.4453 55.9141 15.8423 55.9141 15.1094C55.9141 14.4787 56.0845 13.9353 56.4254 13.4794C56.7706 13.0234 57.2543 12.6719 57.8764 12.4247C58.5028 12.1775 59.2358 12.054 60.0753 12.054C61.3153 12.054 62.2912 12.316 63.0028 12.8402C63.7187 13.3643 64.1364 14.0781 64.2557 14.9815Z" fill="#FDFDFC"/>
<path d="M0 10C0 4.47715 4.47715 0 10 0H34.4575C37.9054 0 41.1101 1.7762 42.9375 4.70001L50 16L42.9375 27.3C41.1101 30.2238 37.9054 32 34.4575 32H10C4.47715 32 0 27.5228 0 22V10Z" fill="#8E4EC6"/>
<path d="M33.3561 8.90912V22H30.6331V8.90912H33.3561Z" fill="white"/>
<path d="M24.8301 22.1918C23.8372 22.1918 22.9786 21.9809 22.2541 21.559C21.534 21.1329 20.9779 20.5405 20.5858 19.782C20.1938 19.0192 19.9977 18.135 19.9977 17.1293C19.9977 16.1151 20.1938 15.2287 20.5858 14.4702C20.9779 13.7074 21.534 13.1151 22.2541 12.6932C22.9786 12.2671 23.8372 12.054 24.8301 12.054C25.823 12.054 26.6796 12.2671 27.3997 12.6932C28.1242 13.1151 28.6824 13.7074 29.0744 14.4702C29.4665 15.2287 29.6625 16.1151 29.6625 17.1293C29.6625 18.135 29.4665 19.0192 29.0744 19.782C28.6824 20.5405 28.1242 21.1329 27.3997 21.559C26.6796 21.9809 25.823 22.1918 24.8301 22.1918ZM24.8429 20.0824C25.2946 20.0824 25.6717 19.9546 25.9743 19.6989C26.2769 19.439 26.5048 19.0853 26.6583 18.6378C26.8159 18.1904 26.8948 17.6811 26.8948 17.1101C26.8948 16.5391 26.8159 16.0299 26.6583 15.5824C26.5048 15.135 26.2769 14.7813 25.9743 14.5213C25.6717 14.2614 25.2946 14.1314 24.8429 14.1314C24.3869 14.1314 24.0034 14.2614 23.6923 14.5213C23.3855 14.7813 23.1533 15.135 22.9956 15.5824C22.8422 16.0299 22.7655 16.5391 22.7655 17.1101C22.7655 17.6811 22.8422 18.1904 22.9956 18.6378C23.1533 19.0853 23.3855 19.439 23.6923 19.6989C24.0034 19.9546 24.3869 20.0824 24.8429 20.0824Z" fill="white"/>
<path d="M19.2557 14.9816L16.7628 15.135C16.7202 14.9219 16.6285 14.7302 16.4879 14.5597C16.3473 14.385 16.1619 14.2465 15.9318 14.1442C15.706 14.0377 15.4354 13.9844 15.12 13.9844C14.6981 13.9844 14.3423 14.0739 14.0525 14.2529C13.7628 14.4276 13.6179 14.662 13.6179 14.956C13.6179 15.1904 13.7116 15.3885 13.8991 15.5505C14.0866 15.7124 14.4084 15.8424 14.8643 15.9404L16.6413 16.2983C17.5959 16.4944 18.3075 16.8097 18.7763 17.2444C19.245 17.679 19.4794 18.25 19.4794 18.9574C19.4794 19.6009 19.2898 20.1655 18.9105 20.6513C18.5355 21.1371 18.0199 21.5164 17.3636 21.7891C16.7116 22.0576 15.9595 22.1918 15.1072 22.1918C13.8075 22.1918 12.772 21.9212 12.0007 21.38C11.2337 20.8346 10.7841 20.0931 10.652 19.1556L13.3302 19.015C13.4112 19.4113 13.6072 19.7138 13.9183 19.9226C14.2294 20.1272 14.6278 20.2294 15.1136 20.2294C15.5909 20.2294 15.9744 20.1378 16.2642 19.9546C16.5582 19.7671 16.7074 19.5263 16.7116 19.2323C16.7074 18.9851 16.603 18.7827 16.3984 18.625C16.1939 18.4631 15.8785 18.3395 15.4524 18.2543L13.7521 17.9155C12.7933 17.7238 12.0795 17.3914 11.6108 16.9184C11.1463 16.4454 10.9141 15.8424 10.9141 15.1094C10.9141 14.4787 11.0845 13.9354 11.4254 13.4794C11.7706 13.0235 12.2543 12.6719 12.8764 12.4248C13.5028 12.1776 14.2358 12.054 15.0753 12.054C16.3153 12.054 17.2912 12.3161 18.0028 12.8402C18.7187 13.3644 19.1364 14.0782 19.2557 14.9816Z" fill="white"/>
</svg>
