<svg width="118" height="32" viewBox="0 0 118 32" fill="none" xmlns="http://www.w3.org/2000/svg">
<path d="M107.546 25.6818V12.1818H110.231V13.8309H110.352C110.471 13.5667 110.644 13.2983 110.87 13.0255C111.1 12.7486 111.398 12.5184 111.765 12.3352C112.136 12.1477 112.596 12.054 113.145 12.054C113.861 12.054 114.522 12.2415 115.127 12.6165C115.732 12.9872 116.216 13.5476 116.578 14.2976C116.94 15.0433 117.121 15.9787 117.121 17.1037C117.121 18.1988 116.944 19.1236 116.591 19.8778C116.241 20.6278 115.764 21.1967 115.159 21.5845C114.558 21.968 113.885 22.1598 113.139 22.1598C112.611 22.1598 112.161 22.0724 111.79 21.8977C111.424 21.723 111.123 21.5035 110.889 21.2393C110.655 20.9709 110.476 20.7003 110.352 20.4275H110.269V25.6818H107.546ZM110.212 17.0909C110.212 17.6747 110.292 18.1839 110.454 18.6186C110.616 19.0532 110.851 19.392 111.158 19.6349C111.464 19.8736 111.837 19.9929 112.276 19.9929C112.719 19.9929 113.094 19.8714 113.401 19.6285C113.708 19.3814 113.94 19.0405 114.098 18.6058C114.26 18.1669 114.341 17.6619 114.341 17.0909C114.341 16.5241 114.262 16.0255 114.104 15.5951C113.947 15.1648 113.714 14.8281 113.408 14.5852C113.101 14.3423 112.724 14.2209 112.276 14.2209C111.833 14.2209 111.458 14.338 111.151 14.5724C110.849 14.8068 110.616 15.1392 110.454 15.5696C110.292 16 110.212 16.5071 110.212 17.0909Z" fill="#FDFDFC"/>
<path d="M100.704 22.1853C100.078 22.1853 99.5197 22.0767 99.0296 21.8594C98.5396 21.6378 98.1518 21.3118 97.8663 20.8814C97.585 20.4467 97.4444 19.9055 97.4444 19.2578C97.4444 18.7123 97.5445 18.2542 97.7448 17.8835C97.9451 17.5128 98.2178 17.2145 98.563 16.9886C98.9082 16.7628 99.3002 16.5923 99.7391 16.4773C100.182 16.3622 100.647 16.2812 101.133 16.2344C101.704 16.1747 102.164 16.1193 102.513 16.0682C102.863 16.0128 103.116 15.9318 103.274 15.8253C103.432 15.7187 103.51 15.5611 103.51 15.3523V15.3139C103.51 14.9091 103.383 14.5959 103.127 14.3743C102.876 14.1527 102.518 14.0419 102.053 14.0419C101.563 14.0419 101.173 14.1505 100.883 14.3679C100.594 14.5809 100.402 14.8494 100.308 15.1733L97.7896 14.9687C97.9174 14.3721 98.1688 13.8565 98.5438 13.4219C98.9188 12.9829 99.4025 12.6463 99.9948 12.4119C100.591 12.1733 101.282 12.054 102.066 12.054C102.611 12.054 103.133 12.1179 103.632 12.2457C104.135 12.3736 104.58 12.5717 104.968 12.8402C105.36 13.1086 105.669 13.4538 105.895 13.8757C106.121 14.2933 106.233 14.794 106.233 15.3778V22H103.651V20.6385H103.574C103.417 20.9453 103.206 21.2159 102.942 21.4503C102.677 21.6804 102.36 21.8615 101.989 21.9936C101.618 22.1214 101.19 22.1853 100.704 22.1853ZM101.484 20.3061C101.885 20.3061 102.238 20.2273 102.545 20.0696C102.852 19.9076 103.093 19.6903 103.268 19.4176C103.442 19.1449 103.53 18.8359 103.53 18.4907V17.4488C103.444 17.5042 103.327 17.5554 103.178 17.6023C103.033 17.6449 102.869 17.6853 102.686 17.7237C102.503 17.7578 102.319 17.7898 102.136 17.8196C101.953 17.8451 101.787 17.8686 101.638 17.8899C101.318 17.9368 101.039 18.0113 100.8 18.1136C100.562 18.2159 100.376 18.3544 100.244 18.5291C100.112 18.6996 100.046 18.9126 100.046 19.1683C100.046 19.539 100.18 19.8224 100.449 20.0184C100.721 20.2102 101.067 20.3061 101.484 20.3061Z" fill="#FDFDFC"/>
<path d="M85.3309 22L82.659 12.1818H85.414L86.9353 18.7784H87.0248L88.61 12.1818H91.3138L92.9246 18.7401H93.0077L94.5035 12.1818H97.252L94.5866 22H91.7037L90.0162 15.8253H89.8948L88.2073 22H85.3309Z" fill="#FDFDFC"/>
<path d="M82.2557 14.9815L79.7628 15.1349C79.7202 14.9219 79.6285 14.7301 79.4879 14.5596C79.3473 14.3849 79.1619 14.2464 78.9318 14.1442C78.706 14.0376 78.4354 13.9844 78.12 13.9844C77.6981 13.9844 77.3423 14.0738 77.0525 14.2528C76.7628 14.4275 76.6179 14.6619 76.6179 14.9559C76.6179 15.1903 76.7116 15.3885 76.8991 15.5504C77.0866 15.7123 77.4084 15.8423 77.8643 15.9403L79.6413 16.2983C80.5959 16.4943 81.3075 16.8096 81.7763 17.2443C82.245 17.679 82.4794 18.25 82.4794 18.9574C82.4794 19.6008 82.2898 20.1655 81.9105 20.6513C81.5355 21.1371 81.0199 21.5163 80.3636 21.789C79.7116 22.0575 78.9595 22.1917 78.1072 22.1917C76.8075 22.1917 75.772 21.9211 75.0007 21.38C74.2337 20.8345 73.7841 20.093 73.652 19.1555L76.3302 19.0149C76.4112 19.4112 76.6072 19.7138 76.9183 19.9226C77.2294 20.1271 77.6278 20.2294 78.1136 20.2294C78.5909 20.2294 78.9744 20.1378 79.2642 19.9545C79.5582 19.767 79.7074 19.5263 79.7116 19.2322C79.7074 18.9851 79.603 18.7826 79.3984 18.625C79.1939 18.463 78.8785 18.3395 78.4524 18.2542L76.7521 17.9155C75.7933 17.7237 75.0795 17.3913 74.6108 16.9183C74.1463 16.4453 73.9141 15.8423 73.9141 15.1094C73.9141 14.4787 74.0845 13.9353 74.4254 13.4794C74.7706 13.0234 75.2543 12.6719 75.8764 12.4247C76.5028 12.1775 77.2358 12.054 78.0753 12.054C79.3153 12.054 80.2912 12.316 81.0028 12.8402C81.7187 13.3643 82.1364 14.0781 82.2557 14.9815Z" fill="#FDFDFC"/>
<path d="M0 10C0 4.47715 4.47715 0 10 0H52.4575C55.9054 0 59.1101 1.7762 60.9375 4.70001L68 16L60.9375 27.3C59.1101 30.2238 55.9054 32 52.4575 32H10C4.47715 32 0 27.5228 0 22V10Z" fill="#C2A633"/>
<path d="M47.0341 22.1918C46.0242 22.1918 45.1549 21.9873 44.4262 21.5782C43.7017 21.1648 43.1435 20.581 42.7515 19.8267C42.3594 19.0682 42.1634 18.1712 42.1634 17.1357C42.1634 16.1257 42.3594 15.2394 42.7515 14.4766C43.1435 13.7138 43.6954 13.1194 44.407 12.6932C45.1229 12.2671 45.9624 12.054 46.9255 12.054C47.5732 12.054 48.1762 12.1584 48.7344 12.3672C49.2969 12.5718 49.787 12.8807 50.2046 13.2941C50.6265 13.7074 50.9546 14.2273 51.189 14.8537C51.4233 15.4759 51.5405 16.2046 51.5405 17.0398V17.7877H43.25V16.1002H48.9773C48.9773 15.7081 48.8921 15.3608 48.7216 15.0583C48.5512 14.7557 48.3147 14.5192 48.0121 14.3488C47.7138 14.174 47.3665 14.0867 46.9702 14.0867C46.5569 14.0867 46.1904 14.1826 45.8708 14.3743C45.5554 14.5618 45.3083 14.8154 45.1293 15.135C44.9503 15.4503 44.8587 15.8019 44.8544 16.1897V17.7941C44.8544 18.2799 44.9439 18.6996 45.1229 19.0533C45.3061 19.407 45.564 19.6797 45.8963 19.8715C46.2287 20.0632 46.6229 20.1591 47.0789 20.1591C47.3814 20.1591 47.6584 20.1165 47.9098 20.0313C48.1613 19.9461 48.3765 19.8182 48.5554 19.6478C48.7344 19.4773 48.8708 19.2685 48.9645 19.0213L51.483 19.1875C51.3552 19.7927 51.0931 20.3211 50.6968 20.7728C50.3047 21.2202 49.7976 21.5696 49.1755 21.8211C48.5576 22.0682 47.8438 22.1918 47.0341 22.1918Z" fill="white"/>
<path d="M36.3923 25.8864C35.5102 25.8864 34.7539 25.765 34.1232 25.5221C33.4968 25.2834 32.9982 24.9574 32.6274 24.5441C32.2567 24.1307 32.0159 23.6662 31.9051 23.1506L34.4236 22.8118C34.5003 23.0079 34.6218 23.1911 34.7879 23.3615C34.9541 23.532 35.1736 23.6684 35.4463 23.7706C35.7233 23.8772 36.06 23.9304 36.4563 23.9304C37.0486 23.9304 37.5365 23.7856 37.92 23.4958C38.3078 23.2103 38.5017 22.7309 38.5017 22.0576V20.2614H38.3867C38.2673 20.5341 38.0884 20.7919 37.8497 21.0348C37.6111 21.2777 37.3043 21.4759 36.9293 21.6293C36.5543 21.7827 36.1068 21.8594 35.587 21.8594C34.8497 21.8594 34.1786 21.689 33.5735 21.3481C32.9726 21.0029 32.4932 20.4766 32.1352 19.7692C31.7816 19.0576 31.6047 18.1584 31.6047 17.0718C31.6047 15.9596 31.7858 15.0306 32.148 14.2848C32.5102 13.5391 32.9918 12.9809 33.5926 12.6101C34.1977 12.2394 34.8604 12.054 35.5806 12.054C36.1303 12.054 36.5905 12.1478 36.9612 12.3353C37.332 12.5185 37.6303 12.7486 37.8561 13.0256C38.0862 13.2983 38.2631 13.5668 38.3867 13.831H38.4889V12.1819H41.1928V22.0959C41.1928 22.9311 40.9882 23.63 40.5791 24.1925C40.17 24.755 39.6033 25.1769 38.8789 25.4581C38.1587 25.7436 37.3298 25.8864 36.3923 25.8864ZM36.4499 19.814C36.8888 19.814 37.2595 19.7053 37.5621 19.488C37.8689 19.2664 38.1033 18.951 38.2652 18.5419C38.4314 18.1286 38.5145 17.6343 38.5145 17.059C38.5145 16.4837 38.4335 15.9851 38.2716 15.5632C38.1097 15.1371 37.8753 14.8069 37.5685 14.5725C37.2617 14.3381 36.8888 14.2209 36.4499 14.2209C36.0024 14.2209 35.6253 14.3424 35.3185 14.5853C35.0117 14.8239 34.7794 15.1563 34.6218 15.5824C34.4641 16.0086 34.3852 16.5007 34.3852 17.059C34.3852 17.6257 34.4641 18.1158 34.6218 18.5292C34.7837 18.9382 35.0159 19.2557 35.3185 19.4816C35.6253 19.7032 36.0024 19.814 36.4499 19.814Z" fill="white"/>
<path d="M26.1661 22.1918C25.1732 22.1918 24.3145 21.9809 23.5901 21.559C22.8699 21.1329 22.3138 20.5405 21.9217 19.782C21.5297 19.0192 21.3337 18.135 21.3337 17.1293C21.3337 16.1151 21.5297 15.2287 21.9217 14.4702C22.3138 13.7074 22.8699 13.1151 23.5901 12.6932C24.3145 12.2671 25.1732 12.054 26.1661 12.054C27.159 12.054 28.0155 12.2671 28.7357 12.6932C29.4601 13.1151 30.0183 13.7074 30.4104 14.4702C30.8024 15.2287 30.9985 16.1151 30.9985 17.1293C30.9985 18.135 30.8024 19.0192 30.4104 19.782C30.0183 20.5405 29.4601 21.1329 28.7357 21.559C28.0155 21.9809 27.159 22.1918 26.1661 22.1918ZM26.1789 20.0824C26.6306 20.0824 27.0077 19.9546 27.3102 19.6989C27.6128 19.439 27.8408 19.0853 27.9942 18.6378C28.1519 18.1904 28.2307 17.6811 28.2307 17.1101C28.2307 16.5391 28.1519 16.0299 27.9942 15.5824C27.8408 15.135 27.6128 14.7813 27.3102 14.5213C27.0077 14.2614 26.6306 14.1314 26.1789 14.1314C25.7229 14.1314 25.3394 14.2614 25.0283 14.5213C24.7215 14.7813 24.4892 15.135 24.3315 15.5824C24.1781 16.0299 24.1014 16.5391 24.1014 17.1101C24.1014 17.6811 24.1781 18.1904 24.3315 18.6378C24.4892 19.0853 24.7215 19.439 25.0283 19.6989C25.3394 19.9546 25.7229 20.0824 26.1789 20.0824Z" fill="white"/>
<path d="M14.7045 22.1598C13.9588 22.1598 13.2834 21.9681 12.6783 21.5845C12.0774 21.1968 11.6001 20.6279 11.2464 19.8779C10.897 19.1236 10.7223 18.1989 10.7223 17.1037C10.7223 15.9787 10.9034 15.0434 11.2656 14.2976C11.6278 13.5476 12.1094 12.9872 12.7102 12.6165C13.3153 12.2415 13.978 12.054 14.6981 12.054C15.2479 12.054 15.706 12.1478 16.0724 12.3353C16.4432 12.5185 16.7415 12.7486 16.9673 13.0256C17.1974 13.2983 17.3721 13.5668 17.4915 13.831H17.5746V8.90912H20.2912V22H17.6065V20.4276H17.4915C17.3636 20.7003 17.1825 20.9709 16.9481 21.2394C16.718 21.5036 16.4176 21.723 16.0469 21.8978C15.6804 22.0725 15.2329 22.1598 14.7045 22.1598ZM15.5675 19.9929C16.0064 19.9929 16.3771 19.8736 16.6797 19.635C16.9865 19.3921 17.2209 19.0533 17.3828 18.6186C17.549 18.184 17.6321 17.6747 17.6321 17.0909C17.6321 16.5071 17.5511 16 17.3892 15.5696C17.2273 15.1392 16.9929 14.8068 16.6861 14.5725C16.3793 14.3381 16.0064 14.2209 15.5675 14.2209C15.12 14.2209 14.7429 14.3424 14.4361 14.5853C14.1293 14.8282 13.897 15.1648 13.7393 15.5952C13.5817 16.0256 13.5028 16.5242 13.5028 17.0909C13.5028 17.662 13.5817 18.1669 13.7393 18.6059C13.9013 19.0405 14.1335 19.3814 14.4361 19.6286C14.7429 19.8715 15.12 19.9929 15.5675 19.9929Z" fill="white"/>
</svg>
