<svg xmlns="http://www.w3.org/2000/svg" width="500" height="500" fill="none"><path fill="#000" d="M381.1 169.4h-42.4c-4.9 0-9.6-2.1-12.9-5.8l-17.2-19.4c-2.6-2.9-6.2-4.6-10.1-4.6-3.9 0-7.5 1.7-10.1 4.6l-14.8 16.7c-4.8 5.4-11.8 8.6-19 8.6H22.5c-6.6 18.8-10.9 38.7-12.6 59.4H229c3.9 0 7.5-1.6 10.2-4.4l20.4-21.3c2.5-2.7 6.1-4.2 9.8-4.2h.8c3.9 0 7.5 1.7 10.1 4.6l17.2 19.4c3.3 3.7 8 5.8 12.9 5.8h178.8c-1.7-20.6-6-40.6-12.6-59.4h-95.5ZM142.5 353.7c3.9 0 7.5-1.6 10.2-4.4l20.4-21.3c2.6-2.7 6.1-4.2 9.8-4.2h.8c3.9 0 7.6 1.7 10.1 4.5l17.2 19.4c3.3 3.7 8 5.8 12.9 5.8h242.4c9.1-18.8 15.7-38.9 19.7-60H253.3c-4.9 0-9.6-2.1-12.9-5.8l-17.2-19.4c-2.6-2.9-6.2-4.5-10.1-4.5-3.9 0-7.6 1.7-10.1 4.5L188.2 285c-4.8 5.5-11.8 8.6-19.1 8.6h-156c4 21.1 10.6 41.2 19.7 60l109.7.1ZM314.4 104.5c3.9 0 7.5-1.6 10.2-4.3L345 78.9c2.5-2.7 6.1-4.2 9.8-4.2h.8c3.9 0 7.5 1.7 10.1 4.6l17.2 19.4c3.3 3.7 8 5.8 12.9 5.8h46.1C398 46.2 328.2 8.4 249.6 8.4c-78.6 0-148.5 37.8-192.4 96.1h257.2ZM221.8 413.1h-63c-4.9 0-9.6-2.1-12.9-5.8l-17.2-19.4c-2.6-2.9-6.2-4.5-10.1-4.5-3.9 0-7.6 1.7-10.1 4.5l-14.8 16.7c-4.8 5.5-11.8 8.6-19.1 8.6h-1c43.9 47 106.4 76.5 175.9 76.5s131.9-29.5 175.9-76.5l-203.6-.1Z"/></svg>