<svg xmlns="http://www.w3.org/2000/svg" width="1219" height="1219" version="1.2"><style>.s0{fill:#213147}.s1{fill:#12aaff}.s3{fill:#fff}</style><path d="M110 370.4v477.7c0 30.5 16.3 58.7 42.7 73.9l413.7 238.9c26.4 15.2 58.9 15.2 85.3 0L1065.4 922c26.4-15.2 42.7-43.4 42.7-73.9V370.4c0-30.5-16.3-58.7-42.7-73.9L651.7 57.6a85.482 85.482 0 0 0-85.3 0L152.6 296.5c-26.4 15.2-42.6 43.4-42.6 73.9z" class="s0"/><path d="m699.3 701.9-59 161.8c-1.6 4.5-1.6 9.4 0 13.9L741.8 1156l117.4-67.8-140.9-386.3c-3.2-8.9-15.8-8.9-19 0zM817.6 429.8c-3.2-8.9-15.8-8.9-19 0l-59 161.8c-1.6 4.5-1.6 9.4 0 13.9l166.3 455.8 117.4-67.8z" class="s1"/><path d="M609 0c-15.9 0-31.9 4.1-46.2 12.4L115.2 270.8a92.35 92.35 0 0 0-46.2 80v516.9c0 33 17.6 63.5 46.2 80l447.7 258.5c14.3 8.2 30.2 12.4 46.2 12.4 15.9 0 31.9-4.1 46.2-12.4L1103 947.7c28.6-16.5 46.2-47 46.2-80V350.8c0-33-17.6-63.5-46.2-80L655.2 12.4C640.9 4.1 624.9 0 609 0zm0 75.5c2.9 0 5.8.8 8.4 2.2l447.7 258.5c5.2 3 8.4 8.6 8.4 14.5v516.9c0 6-3.2 11.5-8.4 14.5l-447.7 258.5c-2.5 1.5-5.5 2.2-8.4 2.2-2.9 0-5.8-.8-8.4-2.2L152.9 882.3c-5.2-3-8.4-8.6-8.4-14.5v-517c0-6 3.2-11.5 8.4-14.5L600.6 77.8c2.6-1.5 5.5-2.3 8.4-2.3z" style="fill:#9dcced"/><path fill-rule="evenodd" d="m312.9 1061.9 41.2-112.8L437 1018l-77.5 70.8z" class="s0"/><path d="M571.3 313.8H457.8c-8.5 0-16.1 5.3-19 13.3l-243.3 667 117.4 67.8 267.9-734.5c2.5-6.6-2.4-13.6-9.5-13.6zM769.9 313.8H656.4c-8.5 0-16.1 5.3-19 13.3l-277.8 761.6 117.4 67.8 302.4-829.1c2.4-6.6-2.5-13.6-9.5-13.6z" class="s3"/></svg>