<svg width="201" height="201" viewBox="0 0 201 201" fill="none" xmlns="http://www.w3.org/2000/svg">
<path d="M0 0H200.183V200.183H0V0Z" fill="white"/>
<path d="M106.942 44.792C110.611 44.792 113.743 47.4451 114.346 51.0645L115.628 58.7578C115.959 60.7434 117.295 62.4351 119.12 63.4453C119.573 63.6963 120.022 63.9553 120.464 64.2227C122.252 65.3023 124.388 65.6154 126.276 64.9082L133.583 62.1699C137.02 60.8828 140.883 62.2687 142.717 65.4463L150.506 78.9375C152.341 82.115 151.609 86.1533 148.777 88.4854L142.745 93.4512C141.192 94.7296 140.395 96.7288 140.433 98.8115C140.438 99.0707 140.44 99.3315 140.44 99.5918C140.44 99.852 140.438 100.112 140.433 100.371C140.395 102.454 141.192 104.454 142.745 105.732L148.777 110.697C151.609 113.029 152.341 117.068 150.506 120.245L142.717 133.736C140.883 136.914 137.02 138.3 133.583 137.013L126.276 134.274C124.388 133.567 122.253 133.88 120.465 134.96C120.022 135.227 119.573 135.487 119.12 135.738C117.295 136.748 115.96 138.439 115.628 140.425L114.346 148.118C113.743 151.738 110.611 154.391 106.942 154.391H91.3638C87.6945 154.391 84.5627 151.738 83.9595 148.118L82.6772 140.425C82.3461 138.439 81.011 136.749 79.186 135.738C78.7325 135.487 78.2842 135.227 77.8413 134.96C76.0534 133.88 73.9174 133.567 72.0298 134.274L64.7222 137.013C61.2861 138.3 57.423 136.914 55.5884 133.736L47.7993 120.246C45.9647 117.068 46.6969 113.029 49.5298 110.697L55.561 105.732C57.1139 104.454 57.9111 102.454 57.8726 100.371C57.8678 100.112 57.8657 99.852 57.8657 99.5918C57.8657 99.3316 57.8678 99.0715 57.8726 98.8125C57.9111 96.7296 57.1139 94.7297 55.561 93.4512L49.5298 88.4854C46.697 86.1533 45.9649 82.1152 47.7993 78.9375L55.5884 65.4463C57.423 62.2687 61.2862 60.8828 64.7222 62.1699L72.0298 64.9082C73.9174 65.6154 76.0534 65.3023 77.8413 64.2227C78.2841 63.9553 78.7326 63.6963 79.186 63.4453C81.011 62.4351 82.3462 60.7434 82.6772 58.7578L83.9595 51.0645C84.5627 47.4451 87.6945 44.792 91.3638 44.792H106.942ZM91.3638 46.292C88.4278 46.292 85.9217 48.4146 85.439 51.3105L84.1567 59.0039C83.7389 61.5107 82.0721 63.5613 79.9126 64.7568C79.4754 64.9988 79.0427 65.249 78.6157 65.5068C76.4998 66.7845 73.8872 67.205 71.5044 66.3125L64.1958 63.5752C61.4464 62.5453 58.3552 63.6537 56.8872 66.1963L49.0981 79.6875C47.6304 82.2301 48.2163 85.4612 50.4829 87.3271L56.5142 92.293C58.4744 93.9067 59.4182 96.3731 59.3726 98.8398C59.3679 99.0898 59.3657 99.3408 59.3657 99.5918C59.3657 99.8427 59.3679 100.093 59.3726 100.343C59.4182 102.81 58.4743 105.276 56.5142 106.89L50.4829 111.855C48.2162 113.722 47.6301 116.953 49.0981 119.496L56.8872 132.986C58.3552 135.529 61.4465 136.638 64.1958 135.608L71.5044 132.87C73.8873 131.978 76.5007 132.398 78.6167 133.676C79.0435 133.934 79.4755 134.184 79.9126 134.426C82.0722 135.621 83.7389 137.672 84.1567 140.179L85.439 147.872C85.9217 150.768 88.4278 152.891 91.3638 152.891H106.942C109.878 152.891 112.384 150.768 112.867 147.872L114.149 140.179C114.567 137.672 116.234 135.621 118.393 134.426C118.83 134.184 119.263 133.934 119.69 133.676C121.806 132.398 124.419 131.977 126.802 132.87L134.11 135.607C136.859 136.637 139.95 135.529 141.418 132.986L149.208 119.495C150.675 116.953 150.089 113.721 147.823 111.855L141.792 106.89C139.831 105.276 138.887 102.81 138.933 100.343C138.938 100.093 138.94 99.8427 138.94 99.5918C138.94 99.3408 138.938 99.0898 138.933 98.8398C138.887 96.3731 139.831 93.9067 141.792 92.293L147.823 87.3271C150.089 85.4612 150.675 82.2301 149.208 79.6875L141.418 66.1963C139.95 63.6537 136.859 62.5453 134.11 63.5752L126.801 66.3125C124.418 67.2051 121.805 66.7845 119.689 65.5068C119.262 65.2491 118.83 64.9988 118.393 64.7568C116.233 63.5613 114.567 61.5107 114.149 59.0039L112.867 51.3105C112.384 48.4146 109.878 46.292 106.942 46.292H91.3638ZM99.1519 80.8242C109.516 80.8245 117.917 89.2266 117.917 99.5908C117.917 109.955 109.516 118.357 99.1519 118.357C88.7874 118.357 80.3853 109.955 80.3853 99.5908C80.3853 89.2265 88.7875 80.8242 99.1519 80.8242ZM99.1519 82.3242C89.6159 82.3242 81.8853 90.0549 81.8853 99.5908C81.8853 109.127 89.6159 116.857 99.1519 116.857C108.688 116.857 116.417 109.127 116.417 99.5908C116.417 90.055 108.688 82.3245 99.1519 82.3242Z" fill="#51D496"/>
<path d="M106.942 44.792L106.942 42.792H106.942V44.792ZM114.346 51.0645L116.319 50.7357L116.319 50.7356L114.346 51.0645ZM115.628 58.7578L113.656 59.0866L113.656 59.0867L115.628 58.7578ZM119.12 63.4453L120.088 61.6955L120.088 61.6955L119.12 63.4453ZM120.464 64.2227L121.498 62.5106L121.498 62.5106L120.464 64.2227ZM126.276 64.9082L126.978 66.7811L126.978 66.781L126.276 64.9082ZM133.583 62.1699L132.882 60.297L132.882 60.2971L133.583 62.1699ZM142.717 65.4463L144.449 64.4463L144.449 64.4463L142.717 65.4463ZM150.506 78.9375L152.238 77.9376L152.238 77.9375L150.506 78.9375ZM148.777 88.4854L150.048 90.0295L150.048 90.0294L148.777 88.4854ZM142.745 93.4512L141.474 91.9071L141.473 91.9072L142.745 93.4512ZM140.433 98.8115L138.433 98.8484L138.433 98.8486L140.433 98.8115ZM140.44 99.5918L142.44 99.5918L142.44 99.5918L140.44 99.5918ZM140.433 100.371L138.433 100.334L138.433 100.334L140.433 100.371ZM142.745 105.732L141.473 107.277L141.474 107.277L142.745 105.732ZM148.777 110.697L150.048 109.153L150.048 109.153L148.777 110.697ZM150.506 120.245L152.238 121.245L152.238 121.245L150.506 120.245ZM142.717 133.736L144.449 134.736L144.449 134.736L142.717 133.736ZM133.583 137.013L132.882 138.886L132.882 138.886L133.583 137.013ZM126.276 134.274L126.978 132.402L126.978 132.402L126.276 134.274ZM120.465 134.96L119.432 133.248L119.432 133.248L120.465 134.96ZM119.12 135.738L118.151 133.988L118.151 133.988L119.12 135.738ZM115.628 140.425L113.656 140.096L113.656 140.096L115.628 140.425ZM114.346 148.118L116.319 148.447L116.319 148.447L114.346 148.118ZM106.942 154.391L106.942 156.391L106.942 156.391L106.942 154.391ZM91.3638 154.391L91.3638 156.391H91.3638L91.3638 154.391ZM83.9595 148.118L85.9323 147.789L85.9323 147.789L83.9595 148.118ZM82.6772 140.425L84.65 140.096L84.65 140.096L82.6772 140.425ZM79.186 135.738L80.1547 133.988L80.1546 133.988L79.186 135.738ZM77.8413 134.96L76.8075 136.672L76.8075 136.672L77.8413 134.96ZM72.0298 134.274L71.3282 132.402L71.328 132.402L72.0298 134.274ZM64.7222 137.013L65.4238 138.886L65.4239 138.886L64.7222 137.013ZM55.5884 133.736L57.3204 132.736L57.3204 132.736L55.5884 133.736ZM47.7993 120.246L46.0673 121.246L46.0673 121.246L47.7993 120.246ZM49.5298 110.697L48.2587 109.153L48.2586 109.153L49.5298 110.697ZM55.561 105.732L56.8321 107.277L56.8322 107.276L55.561 105.732ZM57.8726 100.371L59.8722 100.334L59.8722 100.334L57.8726 100.371ZM57.8657 99.5918L55.8657 99.5918L55.8657 99.5918L57.8657 99.5918ZM57.8726 98.8125L55.8729 98.7755L55.8729 98.7755L57.8726 98.8125ZM55.561 93.4512L54.2898 94.9952L54.2898 94.9952L55.561 93.4512ZM49.5298 88.4854L50.801 86.9414L50.8009 86.9413L49.5298 88.4854ZM47.7993 78.9375L46.0673 77.9375L46.0672 77.9376L47.7993 78.9375ZM55.5884 65.4463L53.8563 64.4463L53.8563 64.4463L55.5884 65.4463ZM64.7222 62.1699L65.4239 60.2971L65.4237 60.297L64.7222 62.1699ZM72.0298 64.9082L71.328 66.781L71.3281 66.7811L72.0298 64.9082ZM77.8413 64.2227L76.8075 62.5106L76.8075 62.5106L77.8413 64.2227ZM79.186 63.4453L80.1546 65.1951L80.1547 65.1951L79.186 63.4453ZM82.6772 58.7578L84.65 59.0867L84.65 59.0866L82.6772 58.7578ZM83.9595 51.0645L81.9867 50.7356L81.9867 50.7357L83.9595 51.0645ZM91.3638 44.792L91.3638 42.792L91.3638 42.792L91.3638 44.792ZM91.3638 46.292L91.3638 44.292L91.3637 44.292L91.3638 46.292ZM85.439 51.3105L83.4662 50.9817L83.4662 50.9817L85.439 51.3105ZM84.1567 59.0039L86.1295 59.3327L86.1295 59.3327L84.1567 59.0039ZM79.9126 64.7568L80.8812 66.5066L80.8813 66.5066L79.9126 64.7568ZM78.6157 65.5068L79.6495 67.2189L79.6495 67.2189L78.6157 65.5068ZM71.5044 66.3125L72.2059 64.4396L72.2059 64.4396L71.5044 66.3125ZM64.1958 63.5752L63.4942 65.4481L63.4943 65.4481L64.1958 63.5752ZM56.8872 66.1963L55.1552 65.1963L55.1552 65.1963L56.8872 66.1963ZM49.0981 79.6875L47.3661 78.6875L47.366 78.6876L49.0981 79.6875ZM50.4829 87.3271L51.7542 85.7832L51.7541 85.7831L50.4829 87.3271ZM56.5142 92.293L55.2429 93.837L55.243 93.837L56.5142 92.293ZM59.3726 98.8398L61.3722 98.8769L61.3722 98.8769L59.3726 98.8398ZM59.3657 99.5918L57.3657 99.5918L57.3657 99.5918L59.3657 99.5918ZM59.3726 100.343L57.3729 100.38L57.3729 100.38L59.3726 100.343ZM56.5142 106.89L55.243 105.346L55.2429 105.346L56.5142 106.89ZM50.4829 111.855L51.7541 113.4L51.7542 113.399L50.4829 111.855ZM49.0981 119.496L47.3661 120.496L47.3661 120.496L49.0981 119.496ZM56.8872 132.986L58.6193 131.986L58.6192 131.986L56.8872 132.986ZM64.1958 135.608L64.8973 137.481L64.8975 137.481L64.1958 135.608ZM71.5044 132.87L70.8029 130.997L70.8027 130.997L71.5044 132.87ZM78.6167 133.676L77.5829 135.388L77.5829 135.388L78.6167 133.676ZM79.9126 134.426L80.8812 132.676L80.8812 132.676L79.9126 134.426ZM84.1567 140.179L86.1295 139.85L86.1295 139.85L84.1567 140.179ZM85.439 147.872L83.4662 148.201L83.4662 148.201L85.439 147.872ZM91.3638 152.891L91.3637 154.891H91.3638V152.891ZM106.942 152.891L106.942 154.891L106.942 154.891L106.942 152.891ZM112.867 147.872L114.839 148.201L114.839 148.201L112.867 147.872ZM114.149 140.179L112.176 139.85L112.176 139.85L114.149 140.179ZM118.393 134.426L117.424 132.676L117.424 132.676L118.393 134.426ZM119.69 133.676L118.656 131.964L118.656 131.964L119.69 133.676ZM126.802 132.87L126.101 134.743L126.101 134.743L126.802 132.87ZM134.11 135.607L134.811 133.735L134.811 133.735L134.11 135.607ZM141.418 132.986L143.151 133.986L143.151 133.986L141.418 132.986ZM149.208 119.495L150.94 120.495L150.94 120.495L149.208 119.495ZM147.823 111.855L146.552 113.399L146.552 113.4L147.823 111.855ZM141.792 106.89L143.063 105.346L143.063 105.346L141.792 106.89ZM138.933 100.343L140.933 100.38L140.933 100.38L138.933 100.343ZM138.94 99.5918L140.94 99.5918L140.94 99.5918L138.94 99.5918ZM138.933 98.8398L136.933 98.8769L136.933 98.8769L138.933 98.8398ZM141.792 92.293L143.063 93.837L143.063 93.837L141.792 92.293ZM147.823 87.3271L146.552 85.7831L146.552 85.7832L147.823 87.3271ZM149.208 79.6875L150.94 78.6876L150.94 78.6875L149.208 79.6875ZM141.418 66.1963L143.151 65.1963L143.151 65.1963L141.418 66.1963ZM134.11 63.5752L134.811 65.4481L134.811 65.4481L134.11 63.5752ZM126.801 66.3125L126.1 64.4396L126.1 64.4396L126.801 66.3125ZM119.689 65.5068L120.723 63.7948L120.723 63.7947L119.689 65.5068ZM118.393 64.7568L117.424 66.5066L117.424 66.5066L118.393 64.7568ZM114.149 59.0039L116.122 58.6751L116.122 58.6751L114.149 59.0039ZM112.867 51.3105L114.839 50.9817L114.839 50.9817L112.867 51.3105ZM106.942 46.292L106.942 44.292H106.942V46.292ZM99.1519 80.8242L99.1519 78.8242H99.1519V80.8242ZM117.917 99.5908L119.917 99.5908L119.917 99.5908L117.917 99.5908ZM99.1519 118.357L99.1519 120.357L99.1519 120.357L99.1519 118.357ZM80.3853 99.5908L78.3853 99.5908V99.5908H80.3853ZM99.1519 82.3242L99.1519 80.3242H99.1519V82.3242ZM81.8853 99.5908L79.8853 99.5908V99.5908H81.8853ZM99.1519 116.857L99.1519 118.857L99.1519 118.857L99.1519 116.857ZM116.417 99.5908L118.417 99.5908L118.417 99.5908L116.417 99.5908ZM106.942 44.792L106.942 46.792C109.633 46.792 111.931 48.7383 112.373 51.3933L114.346 51.0645L116.319 50.7356C115.555 46.152 111.589 42.7921 106.942 42.792L106.942 44.792ZM114.346 51.0645L112.373 51.3933L113.656 59.0866L115.628 58.7578L117.601 58.429L116.319 50.7357L114.346 51.0645ZM115.628 58.7578L113.656 59.0867C114.102 61.766 115.879 63.9374 118.151 65.1951L119.12 63.4453L120.088 61.6955C118.71 60.9327 117.817 59.7208 117.601 58.4289L115.628 58.7578ZM119.12 63.4453L118.151 65.1951C118.583 65.4345 119.01 65.6809 119.431 65.9347L120.464 64.2227L121.498 62.5106C121.033 62.2297 120.563 61.9582 120.088 61.6955L119.12 63.4453ZM120.464 64.2227L119.431 65.9347C121.656 67.2788 124.43 67.7355 126.978 66.7811L126.276 64.9082L125.574 63.0353C124.347 63.4952 122.848 63.3257 121.498 62.5106L120.464 64.2227ZM126.276 64.9082L126.978 66.781L134.285 64.0428L133.583 62.1699L132.882 60.2971L125.574 63.0354L126.276 64.9082ZM133.583 62.1699L134.285 64.0428C136.805 63.0987 139.639 64.1153 140.985 66.4463L142.717 65.4463L144.449 64.4463C142.126 60.4221 137.234 58.6669 132.882 60.297L133.583 62.1699ZM142.717 65.4463L140.985 66.4463L148.774 79.9375L150.506 78.9375L152.238 77.9375L144.449 64.4463L142.717 65.4463ZM150.506 78.9375L148.774 79.9374C150.12 82.2684 149.583 85.2307 147.506 86.9413L148.777 88.4854L150.048 90.0294C153.635 87.0758 154.561 81.9617 152.238 77.9376L150.506 78.9375ZM148.777 88.4854L147.506 86.9413L141.474 91.9071L142.745 93.4512L144.016 94.9953L150.048 90.0295L148.777 88.4854ZM142.745 93.4512L141.473 91.9072C139.378 93.6321 138.386 96.2533 138.433 98.8484L140.433 98.8115L142.433 98.7746C142.404 97.2043 143.005 95.8271 144.016 94.9952L142.745 93.4512ZM140.433 98.8115L138.433 98.8486C138.438 99.0935 138.44 99.3418 138.44 99.5918L140.44 99.5918L142.44 99.5918C142.44 99.3212 142.438 99.0479 142.433 98.7745L140.433 98.8115ZM140.44 99.5918L138.44 99.5918C138.44 99.8416 138.438 100.089 138.433 100.334L140.433 100.371L142.433 100.408C142.438 100.135 142.44 99.8623 142.44 99.5918L140.44 99.5918ZM140.433 100.371L138.433 100.334C138.386 102.929 139.378 105.551 141.473 107.277L142.745 105.732L144.016 104.188C143.006 103.357 142.404 101.979 142.433 100.408L140.433 100.371ZM142.745 105.732L141.474 107.277L147.506 112.241L148.777 110.697L150.048 109.153L144.016 104.188L142.745 105.732ZM148.777 110.697L147.506 112.241C149.583 113.952 150.12 116.914 148.774 119.245L150.506 120.245L152.238 121.245C154.561 117.221 153.635 112.107 150.048 109.153L148.777 110.697ZM150.506 120.245L148.774 119.245L140.985 132.736L142.717 133.736L144.449 134.736L152.238 121.245L150.506 120.245ZM142.717 133.736L140.985 132.736C139.639 135.067 136.805 136.084 134.285 135.14L133.583 137.013L132.882 138.886C137.234 140.516 142.126 138.761 144.449 134.736L142.717 133.736ZM133.583 137.013L134.285 135.14L126.978 132.402L126.276 134.274L125.574 136.147L132.882 138.886L133.583 137.013ZM126.276 134.274L126.978 132.402C124.43 131.447 121.657 131.904 119.432 133.248L120.465 134.96L121.499 136.672C122.849 135.857 124.347 135.687 125.574 136.147L126.276 134.274ZM120.465 134.96L119.432 133.248C119.01 133.502 118.583 133.749 118.151 133.988L119.12 135.738L120.088 137.488C120.564 137.225 121.035 136.953 121.499 136.672L120.465 134.96ZM119.12 135.738L118.151 133.988C115.879 135.246 114.103 137.416 113.656 140.096L115.628 140.425L117.601 140.754C117.817 139.462 118.71 138.251 120.088 137.488L119.12 135.738ZM115.628 140.425L113.656 140.096L112.373 147.789L114.346 148.118L116.319 148.447L117.601 140.754L115.628 140.425ZM114.346 148.118L112.373 147.789C111.931 150.444 109.633 152.391 106.942 152.391L106.942 154.391L106.942 156.391C111.589 156.391 115.555 153.031 116.319 148.447L114.346 148.118ZM106.942 154.391V152.391H91.3638V154.391L91.3638 156.391H106.942L106.942 154.391ZM91.3638 154.391L91.3638 152.391C88.6722 152.391 86.3748 150.444 85.9323 147.789L83.9595 148.118L81.9867 148.447C82.7506 153.031 86.7168 156.391 91.3638 156.391L91.3638 154.391ZM83.9595 148.118L85.9323 147.789L84.65 140.096L82.6772 140.425L80.7045 140.754L81.9867 148.447L83.9595 148.118ZM82.6772 140.425L84.65 140.096C84.2032 137.416 82.4262 135.246 80.1547 133.988L79.186 135.738L78.2174 137.488C79.5957 138.251 80.4891 139.462 80.7045 140.754L82.6772 140.425ZM79.186 135.738L80.1546 133.988C79.7241 133.75 79.2975 133.503 78.8751 133.248L77.8413 134.96L76.8075 136.672C77.2709 136.952 77.7409 137.224 78.2174 137.488L79.186 135.738ZM77.8413 134.96L78.8751 133.248C76.6492 131.904 73.8758 131.447 71.3282 132.402L72.0298 134.274L72.7314 136.147C73.959 135.687 75.4577 135.857 76.8075 136.672L77.8413 134.96ZM72.0298 134.274L71.328 132.402L64.0204 135.14L64.7222 137.013L65.4239 138.886L72.7316 136.147L72.0298 134.274ZM64.7222 137.013L64.0206 135.14C61.5002 136.084 58.6663 135.067 57.3204 132.736L55.5884 133.736L53.8563 134.736C56.1797 138.761 61.0721 140.516 65.4238 138.886L64.7222 137.013ZM55.5884 133.736L57.3204 132.736L49.5313 119.246L47.7993 120.246L46.0673 121.246L53.8564 134.736L55.5884 133.736ZM47.7993 120.246L49.5314 119.246C48.1857 116.915 48.7227 113.952 50.8009 112.241L49.5298 110.697L48.2586 109.153C44.6712 112.107 43.7437 117.221 46.0673 121.246L47.7993 120.246ZM49.5298 110.697L50.8009 112.241L56.8321 107.277L55.561 105.732L54.2899 104.188L48.2587 109.153L49.5298 110.697ZM55.561 105.732L56.8322 107.276C58.9278 105.551 59.9202 102.929 59.8722 100.334L57.8726 100.371L55.8729 100.408C55.9019 101.979 55.3001 103.357 54.2899 104.188L55.561 105.732ZM57.8726 100.371L59.8722 100.334C59.8677 100.089 59.8657 99.8416 59.8657 99.5918L57.8657 99.5918L55.8657 99.5918C55.8657 99.8623 55.8678 100.135 55.8729 100.408L57.8726 100.371ZM57.8657 99.5918L59.8657 99.5918C59.8657 99.342 59.8677 99.0944 59.8722 98.8495L57.8726 98.8125L55.8729 98.7755C55.8678 99.0487 55.8657 99.3213 55.8657 99.5918L57.8657 99.5918ZM57.8726 98.8125L59.8722 98.8495C59.9202 96.2544 58.9276 93.6323 56.8323 91.9072L55.561 93.4512L54.2898 94.9952C55.3001 95.827 55.902 97.2048 55.8729 98.7755L57.8726 98.8125ZM55.561 93.4512L56.8323 91.9072L50.801 86.9414L49.5298 88.4854L48.2585 90.0293L54.2898 94.9952L55.561 93.4512ZM49.5298 88.4854L50.8009 86.9413C48.7228 85.2304 48.1859 82.2682 49.5314 79.9374L47.7993 78.9375L46.0672 77.9376C43.7439 81.9621 44.6713 87.0762 48.2586 90.0294L49.5298 88.4854ZM47.7993 78.9375L49.5314 79.9375L57.3204 66.4463L55.5884 65.4463L53.8563 64.4463L46.0673 77.9375L47.7993 78.9375ZM55.5884 65.4463L57.3204 66.4463C58.6663 64.1153 61.5002 63.0987 64.0206 64.0428L64.7222 62.1699L65.4237 60.297C61.0721 58.6669 56.1797 60.4222 53.8563 64.4463L55.5884 65.4463ZM64.7222 62.1699L64.0204 64.0428L71.328 66.781L72.0298 64.9082L72.7316 63.0354L65.4239 60.2971L64.7222 62.1699ZM72.0298 64.9082L71.3281 66.7811C73.8758 67.7355 76.6492 67.2788 78.8751 65.9347L77.8413 64.2227L76.8075 62.5106C75.4576 63.3257 73.959 63.4952 72.7314 63.0353L72.0298 64.9082ZM77.8413 64.2227L78.8751 65.9347C79.2955 65.6809 79.7223 65.4345 80.1546 65.1951L79.186 63.4453L78.2174 61.6955C77.7429 61.9582 77.2726 62.2297 76.8075 62.5106L77.8413 64.2227ZM79.186 63.4453L80.1547 65.1951C82.4267 63.9374 84.2033 61.766 84.65 59.0867L82.6772 58.7578L80.7045 58.4289C80.4891 59.7208 79.5954 60.9327 78.2174 61.6955L79.186 63.4453ZM82.6772 58.7578L84.65 59.0866L85.9323 51.3933L83.9595 51.0645L81.9867 50.7357L80.7045 58.429L82.6772 58.7578ZM83.9595 51.0645L85.9323 51.3933C86.3748 48.7383 88.6722 46.792 91.3638 46.792L91.3638 44.792L91.3638 42.792C86.7168 42.792 82.7507 46.152 81.9867 50.7356L83.9595 51.0645ZM91.3638 44.792V46.792H106.942V44.792V42.792H91.3638V44.792ZM91.3638 46.292L91.3637 44.292C87.4503 44.292 84.1098 47.1212 83.4662 50.9817L85.439 51.3105L87.4117 51.6394C87.7337 49.708 89.4053 48.292 91.3638 48.292L91.3638 46.292ZM85.439 51.3105L83.4662 50.9817L82.184 58.6751L84.1567 59.0039L86.1295 59.3327L87.4118 51.6393L85.439 51.3105ZM84.1567 59.0039L82.184 58.6751C81.8821 60.4865 80.6581 62.0581 78.9439 63.0071L79.9126 64.7568L80.8813 66.5066C83.4861 65.0646 85.5958 62.5349 86.1295 59.3327L84.1567 59.0039ZM79.9126 64.7568L78.944 63.007C78.4851 63.2611 78.0306 63.5238 77.5819 63.7948L78.6157 65.5068L79.6495 67.2189C80.0547 66.9742 80.4657 66.7366 80.8812 66.5066L79.9126 64.7568ZM78.6157 65.5068L77.5819 63.7947C75.9028 64.8086 73.9276 65.0845 72.2059 64.4396L71.5044 66.3125L70.8029 68.1854C73.8468 69.3256 77.0968 68.7603 79.6495 67.2189L78.6157 65.5068ZM71.5044 66.3125L72.2059 64.4396L64.8973 61.7022L64.1958 63.5752L63.4943 65.4481L70.8029 68.1854L71.5044 66.3125ZM64.1958 63.5752L64.8974 61.7023C61.2327 60.3295 57.1121 61.8069 55.1552 65.1963L56.8872 66.1963L58.6192 67.1963C59.5983 65.5006 61.6602 64.7611 63.4942 65.4481L64.1958 63.5752ZM56.8872 66.1963L55.1552 65.1963L47.3661 78.6875L49.0981 79.6875L50.8302 80.6875L58.6193 67.1963L56.8872 66.1963ZM49.0981 79.6875L47.366 78.6876C45.4094 82.0772 46.1906 86.3841 49.2118 88.8712L50.4829 87.3271L51.7541 85.7831C50.242 84.5383 49.8514 82.3831 50.8303 80.6874L49.0981 79.6875ZM50.4829 87.3271L49.2117 88.8711L55.2429 93.837L56.5142 92.293L57.7854 90.749L51.7542 85.7832L50.4829 87.3271ZM56.5142 92.293L55.243 93.837C56.6598 95.0034 57.4091 96.847 57.3729 98.8028L59.3726 98.8398L61.3722 98.8769C61.4273 95.8991 60.289 92.81 57.7853 90.7489L56.5142 92.293ZM59.3726 98.8398L57.3729 98.8028C57.368 99.0657 57.3657 99.3291 57.3657 99.5918L59.3657 99.5918L61.3657 99.5918C61.3657 99.3525 61.3678 99.1138 61.3722 98.8769L59.3726 98.8398ZM59.3657 99.5918L57.3657 99.5918C57.3657 99.8544 57.368 100.117 57.3729 100.38L59.3726 100.343L61.3722 100.306C61.3678 100.069 61.3657 99.8309 61.3657 99.5918L59.3657 99.5918ZM59.3726 100.343L57.3729 100.38C57.4091 102.336 56.6597 104.179 55.243 105.346L56.5142 106.89L57.7854 108.434C60.2888 106.373 61.4274 103.284 61.3722 100.306L59.3726 100.343ZM56.5142 106.89L55.2429 105.346L49.2117 110.311L50.4829 111.855L51.7542 113.399L57.7854 108.434L56.5142 106.89ZM50.4829 111.855L49.2118 110.311C46.1905 112.799 45.4091 117.106 47.3661 120.496L49.0981 119.496L50.8302 118.496C49.8512 116.8 50.2419 114.644 51.7541 113.4L50.4829 111.855ZM49.0981 119.496L47.3661 120.496L55.1552 133.986L56.8872 132.986L58.6192 131.986L50.8302 118.496L49.0981 119.496ZM56.8872 132.986L55.1552 133.986C57.1118 137.375 61.2322 138.854 64.8973 137.481L64.1958 135.608L63.4943 133.735C61.6607 134.422 59.5985 133.682 58.6193 131.986L56.8872 132.986ZM64.1958 135.608L64.8975 137.481L72.2061 134.743L71.5044 132.87L70.8027 130.997L63.4941 133.736L64.1958 135.608ZM71.5044 132.87L72.2059 134.743C73.9278 134.098 75.9039 134.374 77.5829 135.388L78.6167 133.676L79.6505 131.964C77.0976 130.422 73.8468 129.857 70.8029 130.997L71.5044 132.87ZM78.6167 133.676L77.5829 135.388C78.0303 135.658 78.4841 135.921 78.944 136.176L79.9126 134.426L80.8812 132.676C80.467 132.447 80.0567 132.209 79.6505 131.964L78.6167 133.676ZM79.9126 134.426L78.944 136.176C80.6581 137.124 81.882 138.696 82.184 140.508L84.1567 140.179L86.1295 139.85C85.5958 136.648 83.4862 134.118 80.8812 132.676L79.9126 134.426ZM84.1567 140.179L82.184 140.508L83.4662 148.201L85.439 147.872L87.4118 147.543L86.1295 139.85L84.1567 140.179ZM85.439 147.872L83.4662 148.201C84.1096 152.062 87.4503 154.891 91.3637 154.891L91.3638 152.891L91.3638 150.891C89.4052 150.891 87.7337 149.475 87.4118 147.543L85.439 147.872ZM91.3638 152.891V154.891H106.942V152.891V150.891H91.3638V152.891ZM106.942 152.891L106.942 154.891C110.855 154.891 114.196 152.062 114.839 148.201L112.867 147.872L110.894 147.543C110.572 149.475 108.9 150.891 106.942 150.891L106.942 152.891ZM112.867 147.872L114.839 148.201L116.122 140.508L114.149 140.179L112.176 139.85L110.894 147.543L112.867 147.872ZM114.149 140.179L116.122 140.508C116.424 138.696 117.648 137.124 119.362 136.176L118.393 134.426L117.424 132.676C114.819 134.118 112.71 136.648 112.176 139.85L114.149 140.179ZM118.393 134.426L119.362 136.176C119.821 135.922 120.275 135.659 120.724 135.388L119.69 133.676L118.656 131.964C118.251 132.208 117.84 132.446 117.424 132.676L118.393 134.426ZM119.69 133.676L120.724 135.388C122.403 134.374 124.379 134.098 126.101 134.743L126.802 132.87L127.504 130.997C124.46 129.857 121.209 130.422 118.656 131.964L119.69 133.676ZM126.802 132.87L126.101 134.743L133.408 137.48L134.11 135.607L134.811 133.735L127.504 130.997L126.802 132.87ZM134.11 135.607L133.408 137.48C137.073 138.853 141.194 137.376 143.151 133.986L141.418 132.986L139.686 131.986C138.707 133.682 136.646 134.422 134.811 133.735L134.11 135.607ZM141.418 132.986L143.151 133.986L150.94 120.495L149.208 119.495L147.475 118.495L139.686 131.986L141.418 132.986ZM149.208 119.495L150.94 120.495C152.896 117.106 152.115 112.799 149.094 110.311L147.823 111.855L146.552 113.4C148.064 114.644 148.454 116.8 147.475 118.495L149.208 119.495ZM147.823 111.855L149.094 110.311L143.063 105.346L141.792 106.89L140.52 108.434L146.552 113.399L147.823 111.855ZM141.792 106.89L143.063 105.346C141.646 104.179 140.897 102.336 140.933 100.38L138.933 100.343L136.933 100.306C136.878 103.284 138.017 106.373 140.52 108.434L141.792 106.89ZM138.933 100.343L140.933 100.38C140.938 100.117 140.94 99.8544 140.94 99.5918L138.94 99.5918L136.94 99.5918C136.94 99.8309 136.938 100.069 136.933 100.306L138.933 100.343ZM138.94 99.5918L140.94 99.5918C140.94 99.3291 140.938 99.0657 140.933 98.8028L138.933 98.8398L136.933 98.8769C136.938 99.1138 136.94 99.3525 136.94 99.5918L138.94 99.5918ZM138.933 98.8398L140.933 98.8028C140.897 96.847 141.646 95.0034 143.063 93.837L141.792 92.293L140.52 90.7489C138.017 92.81 136.878 95.8991 136.933 98.8769L138.933 98.8398ZM141.792 92.293L143.063 93.837L149.094 88.8711L147.823 87.3271L146.552 85.7832L140.52 90.749L141.792 92.293ZM147.823 87.3271L149.094 88.8712C152.115 86.3841 152.896 82.0771 150.94 78.6876L149.208 79.6875L147.475 80.6874C148.454 82.3831 148.064 84.5383 146.552 85.7831L147.823 87.3271ZM149.208 79.6875L150.94 78.6875L143.151 65.1963L141.418 66.1963L139.686 67.1963L147.475 80.6875L149.208 79.6875ZM141.418 66.1963L143.151 65.1963C141.194 61.8068 137.073 60.3295 133.408 61.7023L134.11 63.5752L134.811 65.4481C136.646 64.7611 138.707 65.5005 139.686 67.1963L141.418 66.1963ZM134.11 63.5752L133.408 61.7022L126.1 64.4396L126.801 66.3125L127.503 68.1854L134.811 65.4481L134.11 63.5752ZM126.801 66.3125L126.1 64.4396C124.378 65.0846 122.402 64.8086 120.723 63.7948L119.689 65.5068L118.655 67.2189C121.208 68.7605 124.459 69.3256 127.503 68.1854L126.801 66.3125ZM119.689 65.5068L120.723 63.7947C120.275 63.5246 119.822 63.2616 119.362 63.007L118.393 64.7568L117.424 66.5066C117.839 66.7359 118.249 66.9737 118.655 67.2189L119.689 65.5068ZM118.393 64.7568L119.362 63.0071C117.648 62.0581 116.424 60.4865 116.122 58.6751L114.149 59.0039L112.176 59.3327C112.71 62.5349 114.819 65.0646 117.424 66.5066L118.393 64.7568ZM114.149 59.0039L116.122 58.6751L114.839 50.9817L112.867 51.3105L110.894 51.6393L112.176 59.3327L114.149 59.0039ZM112.867 51.3105L114.839 50.9817C114.196 47.1212 110.855 44.2921 106.942 44.292L106.942 46.292L106.942 48.292C108.9 48.292 110.572 49.708 110.894 51.6394L112.867 51.3105ZM106.942 46.292V44.292H91.3638V46.292V48.292H106.942V46.292ZM99.1519 80.8242L99.1518 82.8242C108.411 82.8244 115.917 90.3311 115.917 99.5908L117.917 99.5908L119.917 99.5908C119.917 88.1221 110.621 78.8245 99.1519 78.8242L99.1519 80.8242ZM117.917 99.5908H115.917C115.917 108.851 108.411 116.357 99.1518 116.357L99.1519 118.357L99.1519 120.357C110.621 120.357 119.917 111.06 119.917 99.5908H117.917ZM99.1519 118.357V116.357C89.892 116.357 82.3853 108.851 82.3853 99.5908H80.3853H78.3853C78.3853 111.06 87.6829 120.357 99.1519 120.357V118.357ZM80.3853 99.5908L82.3853 99.5908C82.3853 90.331 89.8921 82.8242 99.1519 82.8242V80.8242V78.8242C87.6829 78.8242 78.3853 88.1219 78.3853 99.5908L80.3853 99.5908ZM99.1519 82.3242V80.3242C88.5113 80.3242 79.8853 88.9503 79.8853 99.5908L81.8853 99.5908L83.8853 99.5908C83.8853 91.1594 90.7205 84.3242 99.1519 84.3242V82.3242ZM81.8853 99.5908H79.8853C79.8853 110.231 88.5113 118.857 99.1519 118.857V116.857V114.857C90.7204 114.857 83.8853 108.022 83.8853 99.5908H81.8853ZM99.1519 116.857L99.1519 118.857C109.792 118.857 118.417 110.231 118.417 99.5908H116.417H114.417C114.417 108.022 107.583 114.857 99.1518 114.857L99.1519 116.857ZM116.417 99.5908L118.417 99.5908C118.417 88.9506 109.792 80.3245 99.1519 80.3242L99.1519 82.3242L99.1518 84.3242C107.583 84.3244 114.417 91.1595 114.417 99.5908L116.417 99.5908Z" fill="#51D496"/>
</svg>
