<svg xmlns="http://www.w3.org/2000/svg" width="473" height="473" version="1.2"><path fill-rule="evenodd" d="M236.8 467.3C109.2 467.3 6.1 364.2 6.1 236.6S109.2 5.9 236.8 5.9 467.5 109 467.5 236.6 364.4 467.3 236.8 467.3z" style="fill:#f3ba2f"/><path fill-rule="evenodd" d="m296.6 261.1 34.8 34.7-94.6 94.5-94.5-94.5 34.8-34.7 59.7 59.7zm-59.8-59.8 35.3 35.3-35.3 35.3-35.2-35.2v-.1l9.2-9.2zm-119 .5 34.8 34.8-34.8 34.7L83 236.5zm238 0 34.8 34.8-34.8 34.7-34.8-34.8zm-119-119 94.5 94.5-34.8 34.8-59.7-59.8-59.7 59.7-34.8-34.7z" style="fill:#131415"/></svg>