<svg xmlns="http://www.w3.org/2000/svg" width="2596" height="2596" version="1.2"><path d="M2269.3 1044.3c40.7-272.3-166.6-418.6-450-516.2l92-368.8-224.5-56-89.6 359.1c-59-14.7-119.6-28.6-179.8-42.3l90.1-361.5-224.3-55.9-92 368.6c-48.9-11.1-96.8-22.1-143.4-33.6l.3-1.2-309.6-77.3L678.8 499s166.5 38.1 163 40.5c90.9 22.7 107.4 82.9 104.6 130.6l-104.7 420.1c6.3 1.6 14.4 3.9 23.3 7.5-7.4-1.9-15.4-3.9-23.7-5.9l-146.8 588.6c-11.1 27.6-39.3 69.1-102.9 53.3 2.3 3.3-163.1-40.7-163.1-40.7L317 1950l292.2 72.8c54.3 13.7 107.6 27.9 160 41.3l-92.9 373.1 224.3 55.9 92-369.1c61.2 16.7 120.7 32 178.9 46.5l-91.7 367.3 224.5 55.9 92.9-372.3c382.8 72.4 670.6 43.2 791.8-303 97.6-278.8-4.9-439.6-206.3-544.5 146.7-33.8 257.2-130.3 286.7-329.6h-.1zm-512.9 719.2c-69.4 278.8-538.8 128.1-691 90.3l123.3-494.2c152.2 38 640.2 113.2 567.7 403.9zm69.4-723.3c-63.3 253.6-453.9 124.8-580.7 93.2l111.8-448.2c126.7 31.6 534.9 90.5 468.9 355z" style="fill:#f7931a"/></svg>