<svg width="70" height="81" viewBox="0 0 70 81" fill="none" xmlns="http://www.w3.org/2000/svg">
<path d="M62.921 11.2303L69.846 2.3388C70.238 1.776 69.837 1 69.146 1L50.529 0C47.186 0 44.057 1.6287 42.146 4.3659L34.198 15.7157C34.0786 15.8862 34.0445 16.0653 34.053 16.2443C33.5072 16.2188 32.9614 16.2017 32.4071 16.2017C14.5064 16.1932 0 30.698 0 48.5966C0 66.495 14.5064 81 32.4071 81C50.308 81 64.814 66.495 64.814 48.5966C64.814 33.2391 54.128 20.3886 39.784 17.0459H51.74C56.192 17.0459 60.362 14.8715 62.921 11.2303ZM47.758 48.5966C47.758 57.064 40.876 63.946 32.4071 63.946C23.9386 63.946 17.0564 57.064 17.0564 48.5966C17.0564 40.1291 23.9386 33.2476 32.4071 33.2476C40.876 33.2476 47.758 40.1291 47.758 48.5966Z" fill="#FF6B17"/>
</svg>
