<svg xmlns="http://www.w3.org/2000/svg" width="500" height="500" fill="none"><path fill="#fff" d="M82.283 219.613c0-15.124 4.978-28.876 13.584-39.78l91.1 91.055c-11.095 8.605-24.869 13.583-39.803 13.583-35.984-.021-65.07-29.086-64.881-64.858Zm270.979 64.647c35.795.19 64.882-28.896 64.882-64.858 0-14.913-4.978-28.686-13.584-39.78l-91.1 91.055c10.905 8.605 24.679 13.583 39.802 13.583Zm70.429-123.389c13.394 16.072 21.43 36.342 21.43 58.91 0 50.685-41.152 91.815-91.859 91.815-22.379 0-42.86-8.036-58.933-21.43l-44.211 44.188-44.21-44.188c-16.073 13.394-36.364 21.43-58.933 21.43-50.707 0-91.86-41.13-91.86-91.815 0-22.379 8.037-42.859 21.43-58.91l-20.67-20.65-19.7-19.7C13.204 158.382 0 202.57 0 250.028 0 388.14 111.94 499.865 249.929 499.865c137.968 0 249.928-111.915 249.928-249.837.38-47.627-12.824-91.815-35.794-129.507l-40.372 40.35ZM249.929 296.114 51.656 97.931a291.82 291.82 0 0 1 17.613-20.46C114.808 29.846 178.93 0 250.118 0c71.189 0 135.48 29.846 180.85 77.472 6.307 6.306 12.255 13.393 17.233 20.27L249.929 296.114ZM96.436 96.223l153.661 153.615L403.758 96.223c-40.751-41.13-95.107-63.699-153.661-63.699-58.553 0-112.698 22.569-153.66 63.699Z"/></svg>