<?xml version="1.0" encoding="utf-8" ?>
<svg baseProfile="tiny" height="624px" version="1.2" width="680px" xmlns="http://www.w3.org/2000/svg" xmlns:ev="http://www.w3.org/2001/xml-events" xmlns:xlink="http://www.w3.org/1999/xlink"><defs /><path d="M 334,255 L 333,256 L 330,256 L 329,257 L 328,257 L 327,258 L 325,258 L 323,260 L 322,260 L 321,261 L 320,261 L 318,263 L 317,263 L 312,268 L 312,269 L 311,270 L 311,271 L 310,272 L 310,273 L 309,274 L 309,275 L 308,276 L 308,277 L 307,278 L 307,279 L 306,280 L 306,284 L 305,285 L 305,442 L 306,443 L 306,446 L 307,447 L 307,449 L 308,450 L 308,451 L 309,452 L 309,453 L 310,454 L 310,455 L 311,456 L 311,457 L 312,458 L 312,459 L 313,459 L 315,461 L 315,462 L 316,462 L 320,466 L 321,466 L 322,467 L 323,467 L 324,468 L 325,468 L 326,469 L 329,469 L 330,470 L 334,470 L 335,471 L 345,471 L 346,470 L 349,470 L 350,469 L 353,469 L 354,468 L 356,468 L 357,467 L 358,467 L 361,464 L 362,464 L 367,459 L 367,458 L 369,456 L 369,455 L 370,454 L 370,453 L 371,452 L 371,451 L 372,450 L 372,449 L 373,448 L 373,445 L 374,444 L 374,440 L 375,439 L 375,290 L 374,289 L 374,284 L 373,283 L 373,280 L 372,279 L 372,277 L 371,276 L 371,275 L 370,274 L 370,273 L 368,271 L 368,269 L 361,262 L 360,262 L 359,261 L 358,261 L 357,260 L 356,260 L 354,258 L 353,258 L 352,257 L 350,257 L 349,256 L 346,256 L 345,255 Z" fill="black" /><path d="M 528,215 L 527,216 L 525,216 L 524,217 L 523,217 L 520,220 L 520,221 L 519,222 L 519,223 L 518,224 L 518,226 L 517,227 L 517,233 L 518,234 L 518,235 L 519,236 L 519,238 L 521,240 L 521,241 L 524,244 L 525,244 L 571,290 L 572,290 L 573,291 L 572,292 L 448,292 L 447,293 L 444,293 L 443,294 L 442,294 L 441,295 L 440,295 L 438,297 L 438,298 L 437,299 L 437,300 L 436,301 L 436,302 L 435,303 L 435,308 L 436,309 L 436,311 L 437,312 L 437,313 L 442,318 L 444,318 L 445,319 L 572,319 L 573,320 L 566,327 L 566,328 L 563,331 L 562,331 L 561,332 L 561,333 L 557,337 L 556,337 L 551,342 L 551,343 L 542,352 L 541,352 L 536,357 L 536,358 L 528,366 L 527,366 L 521,372 L 521,373 L 519,375 L 519,376 L 518,377 L 518,379 L 517,380 L 517,387 L 518,388 L 518,389 L 519,390 L 519,391 L 520,392 L 520,393 L 522,395 L 523,395 L 524,396 L 525,396 L 526,397 L 536,397 L 537,396 L 538,396 L 539,395 L 541,395 L 619,317 L 620,317 L 621,316 L 621,315 L 623,313 L 623,311 L 624,310 L 624,301 L 623,300 L 623,298 L 620,295 L 620,294 L 619,293 L 618,293 L 543,218 L 542,218 L 541,217 L 540,217 L 539,216 L 537,216 L 536,215 Z" fill="black" /><path d="M 144,215 L 143,216 L 142,216 L 141,217 L 139,217 L 138,218 L 137,218 L 130,225 L 130,226 L 129,227 L 128,227 L 128,228 L 124,232 L 123,232 L 116,239 L 116,240 L 109,247 L 108,247 L 101,254 L 101,255 L 94,262 L 93,262 L 87,268 L 87,269 L 79,277 L 78,277 L 71,284 L 71,285 L 64,292 L 63,292 L 59,296 L 59,297 L 57,299 L 57,301 L 56,302 L 56,310 L 57,311 L 57,312 L 58,313 L 58,314 L 79,335 L 80,335 L 82,337 L 82,338 L 108,364 L 109,364 L 117,372 L 117,373 L 122,378 L 123,378 L 133,388 L 133,389 L 136,392 L 137,392 L 140,395 L 141,395 L 142,396 L 143,396 L 144,397 L 146,397 L 147,398 L 153,398 L 154,397 L 156,397 L 157,396 L 158,396 L 162,392 L 162,391 L 163,390 L 163,389 L 164,388 L 164,379 L 163,378 L 163,377 L 162,376 L 162,375 L 159,372 L 159,371 L 149,361 L 148,361 L 142,355 L 142,354 L 141,354 L 108,321 L 107,321 L 106,320 L 107,319 L 228,319 L 229,320 L 230,319 L 236,319 L 238,317 L 239,317 L 243,313 L 243,312 L 244,311 L 244,309 L 245,308 L 245,303 L 244,302 L 244,301 L 243,300 L 243,299 L 242,298 L 242,297 L 241,296 L 240,296 L 238,294 L 237,294 L 236,293 L 234,293 L 233,292 L 109,292 L 108,291 L 109,290 L 110,290 L 162,238 L 162,237 L 163,236 L 163,234 L 164,233 L 164,225 L 163,224 L 163,223 L 162,222 L 162,221 L 157,216 L 155,216 L 154,215 Z" fill="black" /><path d="M 333,124 L 332,125 L 327,125 L 326,126 L 324,126 L 323,127 L 321,127 L 320,128 L 318,128 L 317,129 L 316,129 L 315,130 L 314,130 L 312,132 L 311,132 L 307,136 L 306,136 L 306,137 L 305,138 L 304,138 L 300,142 L 300,143 L 297,146 L 297,147 L 296,148 L 296,149 L 295,150 L 295,151 L 294,152 L 294,153 L 293,154 L 293,155 L 292,156 L 292,157 L 291,158 L 291,160 L 290,161 L 290,163 L 289,164 L 289,170 L 288,171 L 288,179 L 289,180 L 289,185 L 290,186 L 290,188 L 291,189 L 291,191 L 292,192 L 292,194 L 293,195 L 293,196 L 294,197 L 294,198 L 296,200 L 296,202 L 298,204 L 298,205 L 301,208 L 301,209 L 305,213 L 306,213 L 308,215 L 309,215 L 312,218 L 313,218 L 315,220 L 316,220 L 317,221 L 318,221 L 319,222 L 320,222 L 321,223 L 323,223 L 324,224 L 326,224 L 327,225 L 330,225 L 331,226 L 347,226 L 348,225 L 352,225 L 353,224 L 355,224 L 356,223 L 358,223 L 359,222 L 360,222 L 361,221 L 362,221 L 363,220 L 364,220 L 365,219 L 366,219 L 369,216 L 370,216 L 372,214 L 373,214 L 380,207 L 380,206 L 382,204 L 382,203 L 383,202 L 383,201 L 384,200 L 384,199 L 385,198 L 385,197 L 386,196 L 386,195 L 387,194 L 387,193 L 388,192 L 388,190 L 389,189 L 389,187 L 390,186 L 390,180 L 391,179 L 391,171 L 390,170 L 390,166 L 389,165 L 389,162 L 388,161 L 388,159 L 387,158 L 387,157 L 386,156 L 386,154 L 385,153 L 385,152 L 384,151 L 384,150 L 383,149 L 383,148 L 382,147 L 382,146 L 376,140 L 376,139 L 375,139 L 369,133 L 368,133 L 366,131 L 365,131 L 363,129 L 362,129 L 361,128 L 359,128 L 358,127 L 355,127 L 354,126 L 352,126 L 351,125 L 347,125 L 346,124 Z" fill="black" /><path d="M 335,122 Z" fill="black" /></svg>