<svg xmlns="http://www.w3.org/2000/svg" width="6" height="6" fill="none"><path fill="#fff" d="M4.816.305 3.562 2.167a.133.133 0 0 0 .198.175L4.995 1.27a.05.05 0 0 1 .082.038v3.352a.05.05 0 0 1-.088.032L1.257.227A.64.64 0 0 0 .769.001h-.13A.64.64 0 0 0 0 .64v4.72a.64.64 0 0 0 1.184.335l1.254-1.862a.133.133 0 0 0-.198-.175l-1.235 1.07a.05.05 0 0 1-.082-.037V1.338a.05.05 0 0 1 .032-.047.05.05 0 0 1 .055.015l3.732 4.467A.639.639 0 0 0 5.23 6h.13A.64.64 0 0 0 6 5.36V.64A.64.64 0 0 0 4.816.305Z"/></svg>