<?xml version="1.0" encoding="UTF-8"?>
<svg version="1.1" viewBox="0 0 936 956" width="234" height="239" xmlns="http://www.w3.org/2000/svg">
<path transform="translate(0)" d="m0 0h936v956h-936z" fill="#03122C"/>
<path transform="translate(0)" d="m0 0h936v956h-936zm441 46-30 3-29 5-26 6-37 12-24 10-25 12-18 10-23 15-17 12-22 18-12 11-30 30-22 28-12 17-11 18-12 22-12 25-11 28-9 28-8 35-4 26-3 31-1 21v17l2 31 5 36 8 36 9 29 10 26 13 28 10 18 12 19 13 19 10 13 12 14 12 13 22 22 11 9 10 9 14 10 17 12 21 13 18 10 16 8 15 7 29 11 27 8 21 5 22 4 20 3 35 2h20l25-1 25-3 23-4 30-7 26-8 27-10 30-14 11-6 22-13 16-11 19-14 22-18v-2l4-2 12-11v-2l4-2 11-12 9-11 8-9 4-5v-2h2l4-6 13-18 9-15 8-14 12-23 6-14 5-12 8-21 9-31 6-28 5-34 1-11v-56l-4-37-3-20-8-35-12-38-10-24-11-23-11-20-14-22-13-18-11-14-9-10-7-8-8-9-5-5-13-12-11-10-9-7-13-10-20-14-18-11-18-10-16-8-28-12-36-12-22-6-27-5-21-3-23-2z" fill="#03122C"/>
<path transform="translate(441,46)" d="m0 0h51l31 3 30 5 26 6 36 12 25 10 22 10 23 13 16 10 17 12 12 9 16 13 12 11 11 10 7 8 10 10 9 11 10 12 10 14 7 10 13 21 8 14 9 19 7 15 9 23 11 36 8 36 4 31 2 21v56l-3 26-5 29-6 25-8 27-11 29-4 8-11 23-10 18-14 22-10 14-4 6h-2l-2 4-8 10-10 11-14 16h-2l-2 4-12 11h-2v2l-11 9-12 10-18 13-13 9-20 12-16 9-30 14-27 10-19 6-23 6-24 5-27 4-11 1-25 1h-20l-35-2-33-5-22-5-29-8-25-9-21-9-17-8-23-13-19-12-17-12-16-12-15-13-12-11-22-22-7-8-11-13-13-18-10-15-15-25-8-16-11-23-10-26-9-31-8-37-5-42-1-20v-17l2-35 5-38 8-36 9-29 10-26 12-26 11-21 12-20 10-14 8-11 8-10 13-16 35-35 11-9 16-13 19-13 22-14 18-10 27-13 26-10 31-10 36-8 26-4zm16 61-28 2-32 5-32 8-30 10-25 11-22 12-18 11-20 14-16 13-11 10-8 7-16 16-9 11-13 16-7 10-11 17-9 16-9 17-8 18-9 24-6 19-6 24-6 37-2 25v27l2 26 4 28 6 28 7 23 7 20 10 23 11 22 15 24 13 18 9 11 11 12 7 8 20 20 11 9 7 6 13 10 18 12 19 11 23 12 23 10 33 11 26 6 26 4 17 2h49l34-4 29-6 25-7 22-8 20-9 20-10 17-10 15-10 19-14 14-12 8-7 13-12 12-13 12-14 10-13 11-16 12-19 15-28 9-21 8-23 8-29 6-36 2-17v-58l-4-30-5-26-8-29-9-25-13-29-14-26-8-12-13-19-12-14-9-11-27-27-11-9-15-12-27-18-25-14-23-11-29-11-25-7-31-6-24-3-19-1z" fill="#01A6FE"/>
<path transform="translate(873,558)" d="m0 0 2 1v16l6-3v8l-9 31-10 27-12 26-13 25-12 19-11 16-6 8-1 2h-2l-2 4-8 10-10 11-14 16h-2l-2 4-12 11h-2v2l-11 9-12 10-18 13-13 9-20 12-16 9-30 14-27 10-19 6-23 6-24 5-27 4-11 1-25 1h-20l-35-2-33-5-22-5-29-8-25-9-21-9-17-8-23-13-19-12-17-12-16-12-15-13-12-11-22-22-7-8-11-13-13-18-10-15-3-9-1-5 1-6-3-10 1-4 3 3 11 1 3 2v2l14-4 9 1 10 4 8 8h2l-1-4h3v2l4 2 6 9v2l3 1 7 9 13 12 7 8 19 19 11 9 7 6 13 10 18 12 19 11 23 12 23 10 33 11 26 6 26 4 17 2h49l34-4 29-6 25-7 22-8 20-9 20-10 17-10 15-10 19-14 14-12 8-7 13-12 11-12 12-14 10-13 11-16 12-19 15-28 9-21 8-23 5-17 2-1 2 1v5l3-1h2l5-5 1 5 6-4 15-3 2 2 4-1 8-5z" fill="#00E8C3"/>
<path transform="translate(464,212)" d="m0 0 4 1 5 9 7 10 22 33 25 38 66 99 27 41 22 33 14 22 16 25 10 15 13 20 10 15 9 14 18 27 3 3v3h-77l-42-63-29-44-29-43-15-23-66-99-10-16v-2l-5 5-18 28-11 17-10 16-9 14-11 17-7 11-13 20-9 14-10 15-10 16-13 20-12 19-9 14-10 15-13 20-16 25-5 7-79 1 1-4 4-6 9-14 17-26 22-34 13-20 22-33 12-19 8-12 11-17 9-14 15-23 10-15 13-20 18-27 7-11 11-17 9-14 10-15 12-19 9-14 17-26 7-11z" fill="#00BAF8"/>
<path transform="translate(280,155)" d="m0 0h4l1 3-15 9-20 14-16 13-11 10-8 7-15 15-9 11-13 16-7 10-11 17-9 16-9 17-8 18-9 24-6 19-6 24-6 37-2 25v27l2 26 4 28 6 28 7 23 7 20 10 23 11 22 15 24 13 18 9 11 3 3-1 2-8-8-4-6-4-4-6-9-2-1v-2l-2 1 1 4-4-1-6-5-4-4-4-1-7-2-8 1-7 2h-4v-2l-11-2-5-1-1 1 3 11-1 8 3 7-2 1-13-22-8-16-11-23-10-26-9-31-8-37-5-42-1-20v-17l2-35 5-38 8-36 9-29 10-26 12-26 11-21 12-20 10-14h2l-2 4-5 9-2 5-4 4-1 7-2 4h-2l-1 9-10 20-4 10-6 16v10l4 1 5-2 5 1-1 3h5l8-6 6-4 5-1 2 2 6-5 10-15 7-11 16-24 9-11 7-8 5-6 7-9 10-11 8-7 4-2 2-4 7-7 14-10 5-6 9-6 19-13z" fill="#00BAF8"/>
<path transform="translate(695,115)" d="m0 0h6l17 12 12 9 16 13 12 11 11 10 7 8 10 10 9 11 10 12 10 14 7 10 13 21 8 14 9 19 7 15 9 23 11 36 8 36 4 31 2 21v56l-3 26-5 29-3 14-4-2-3 1-1-16-5 6-8 5-4-1-5-1-5 2-6 1-4 3h-2l-2-3-6 5-3-1v-5l-3-1 2-11 6-36 2-17v-58l-4-30-5-26-8-29-9-25-13-29-14-26-8-12-13-19-12-14-9-11-26-26-11-9-15-12-27-18-25-14-23-11-11-5-1-3h8l17 6 16 8 25 13 11 7 19 14 13 10 15 13 18 18 8 9 8 10 7 8 10 13 3 5v2h2l9 13 10 14 6 4 5 1 2-6 4-2v-2h4l2-4 5-2 4 2v2h4l-1-8-5-13-7-18-9-14-10-13-7-11-9-10-7-8-7-7-9-11-5-5-11-9-7-10-13-7-8-6-9-6-2-5-6-2-5-5z" fill="#01B9F9"/>
<path transform="translate(104,672)" d="m0 0 4 3 11 1 3 2v2l14-4 9 1 10 4 8 8h2l-1-4h3v2l4 2 6 9v2l3 1 7 9 13 12 7 8 19 19 11 9 7 6 13 10 18 12 19 11 23 12 23 10 33 11 26 6 39 6 1 2-8 1-21-1-10-2-18-1-7-1-11 1-13 4h-15l-13 2-9 2h-23l2 5 9 5 8 5v2l4 2 1 3-7-1-18-8-16-8-17-9-21-13-20-14-16-12-15-13-12-11-22-22-7-8-11-13-13-18-10-15-3-9-1-5 1-6-3-10z" fill="#00E8C3"/>
<path transform="translate(676,835)" d="m0 0 1 2-5 4-5 2-10 7-13 7h-3l-1 2-11 6-8 3-12 5-19 6-13 4-21 7-1 2-21 4-21 3-11 1-25 1h-20l-35-2-33-5-22-5-29-8-25-9 2-1-5-5v-2l-5-2-11-7h-2l-2-6 1-1h23l12-3 11-1h14l13-4 14-1 16 2h9l7 2 26 1h11l11 2 11 1 48-3 9-1h7l14-2h8l6-2 24-3h9l5 3 16 2 2 1h16l18-3 8-2h10z" fill="#00EDA5"/>
<path transform="translate(464,221)" d="m0 0 4 1 4 6 3 7 6 10 6 9 2 5h2l7 13 6 9 11 20 10 16 10 17 8 16 1 6-4-1-5-8-10-6-4 1-3 3-1 3h3v6l-3 3-3-1v-2h-2v-2h-2v-2l-10-2-7-2-6-8-8-7-7-2-3-5h-7l-5 5-4 6h-2l-2 4-8 11-3 1-2 4-5 4-5 1-4 3v-3l-6 2-3 6-6 5-8 2-2-5-2-7-3-2-10 1-2-3 6-10 6-11 8-16 2-5h2l2-5 5-10 10-14 4-9 3-7 2-3h2l2-4 6-10 7-10 9-17 5-5z" fill="#02A6FF"/>
<path transform="translate(50,396)" d="m0 0h2l1 9-1 17-3 22-2 32v18l4 23 2 13 1 8 2 21 1 4 2-5 6-9 4-1 1-5 4-1 12 5 4-2 3-4h5l3 3v2h2l-4-23-1-31-2-18 1-13 3-17 5-2v45l2 26 4 28 6 28 7 23 7 20 10 23 11 22 15 24 13 18 9 11 3 3-1 2-8-8-4-6-4-4-6-9-2-1v-2l-2 1 1 4-4-1-6-5-4-4-4-1-7-2-8 1-7 2h-4v-2l-11-2-5-1-1 1 3 11-1 8 3 7-2 1-13-22-8-16-11-23-10-26-9-31-8-37-5-42-1-20v-17l2-35z" fill="#00CEE7"/>
<path transform="translate(869,336)" d="m0 0h2l8 27 8 36 4 31 2 21v56l-3 26-5 29-3 14-4-2-3 1-1-16-5 6-8 5-4-1-5-1-5 2-6 1-4 3h-2l-2-3-6 5-3-1v-5l-3-1 2-11 6-36 2-17v-58l-2-16v-7l2-1 2 9v6l2 1v3 13l2 9 1 7 1-1 2-10 2-2 1 3 4 1 4-4 7 3 6-1 9-7 5-5 8 2 2 5-6-30-1-15-3-12-2-14-4-18-2-16-2-7z" fill="#00CEE7"/>
<path transform="translate(640,479)" d="m0 0 6 3 15 24 19 29 15 23 10 15 9 14 18 27 3 3v3h-77l-42-63-29-44v-2l5 1v2l5 2 9 11 4 7 7 10v2h2l7 11 3 2-5-11 1-2 5-3h9l5-6 3-2 2-4 5 1 3 1 2-1h8l4 3-6-9-4-7-5-8-1-5h-2v-3h-2l-3-7-6-11-3-5z" fill="#00CEE7"/>
<path transform="translate(375,464)" d="m0 0h2l-1 5-12 18-10 16-13 20-12 19-9 14-10 15-13 20-16 25-5 7-79 1 1-4 4-6 9-14 17-26 22-34 13-20 5-3-1 7-4 5-6 9-2 2-3 8-10 15-6 12h-2l-2 6-4 6h-2l-2 6-4 6h-2l1 2 9-10h2v-2l9-6 5-5 7-3 6-3h4l2 3h12l14-7 7 1-1 8h2v-2l5-5h2l1-5 6-7 4-7 7-10 5-7 3-6 5-6 4-7 5-7 3-5 7-11 5-6 4-7 4-5 1-3h2v-2l5-2z" fill="#00CEE7"/>
<path transform="translate(873,558)" d="m0 0 2 1 1 18-4 6-2 6h-2v2h-2l-1 4h-2l-1 5-4 5-3 1-4 4h-2v-2h-2l-1 3 2 2-2 2-4-1 2-1v-2h-3l-1 2-5-1-4 3-8 1-2-5-2-3v-4l-1-10 2-4v-8l-2-1-1 3 1-7 3-8 3 1v5l3-1h2l5-5 1 5 6-4 15-3 2 2 4-1 8-5z" fill="#00DBD1"/>
<path transform="translate(104,672)" d="m0 0 4 3 11 1 3 2v2l14-4 9 1 10 4 5 5 6 5 5 10h-2l-1 2-8-1-9-2-5 2-4 3-4-1-9-4-5-1-4-2-1 2h-2v-2l-4-2-2-4-3-1-4-14z" fill="#00DBD2"/>
<path transform="translate(869,336)" d="m0 0h2l8 27 8 36 4 31 2 21v17h-1l-1-8-2-3-1-10-4-16-1-8-1-13-3-12-2-14-4-18-2-16-2-7z" fill="#00CBE9"/>
<path transform="translate(50,396)" d="m0 0h2l1 9-1 17-3 22-2 32-2 1v16h-1l-1-7v-17l2-35z" fill="#00C9EC"/>
<path transform="translate(627,78)" d="m0 0 6 1 20 9 16 8 11 6 1 5-10-3-16-8-16-9-5-3-6-4z" fill="#01B8F9"/>
<path transform="translate(830,423)" d="m0 0 2 3 1 12 2 1v3 10l-3 1-3-22v-7z" fill="#00CAEA"/>
<path transform="translate(122,224)" d="m0 0h2l-2 4-5 9-2 5-3 3h-3l2-5 10-15z" fill="#01B7F9"/>
<path transform="translate(167,683)" d="m0 0 5 5 9 12 8 10 3 3-1 2-8-8-4-6-4-4-6-9-2-1z" fill="#00D0E0"/>
<path transform="translate(111,393)" d="m0 0h1v11l-1 6h-3l-1-2 1-9z" fill="#00CBE9"/>
<path transform="translate(631,466)" d="m0 0 7 4 2 3-1 4-2 1-6-9z" fill="#00CCE9"/>
<path transform="translate(821,569)" d="m0 0 3 1v6l-2 5-3-1v-7z" fill="#00E4C8"/>
<path transform="translate(154,184)" d="m0 0 1 2-3 5h-2l-2 4-5 5h-3l12-14z" fill="#01B6FA"/>
<path transform="translate(823,576)" d="m0 0h2l-2 8-1 3-2-1v-4l-2-1-1 3 1-7 2 1-1 2h2z" fill="#00CDE8"/>
<path transform="translate(626,457)" d="m0 0 4 1 4 6-1 2-5-3-2-3z" fill="#00CAEB"/>
<path transform="translate(468,328)" d="m0 0 4 2 1 3-1 3h-3l-2-6z" fill="#01A9FE"/>
<path transform="translate(396,434)" d="m0 0 1 3-7 10-2-1 5-8z" fill="#00C6EE"/>
</svg>
