<svg xmlns="http://www.w3.org/2000/svg" width="101" height="101" version="1.2"><defs><linearGradient id="a" x2="1" gradientTransform="matrix(80.468 -93.114 77.321 66.82 8.526 96.097)" gradientUnits="userSpaceOnUse"><stop offset=".08" stop-color="#9945ff"/><stop offset=".3" stop-color="#8752f3"/><stop offset=".5" stop-color="#5497d5"/><stop offset=".6" stop-color="#43b4ca"/><stop offset=".72" stop-color="#28e0b9"/><stop offset=".97" stop-color="#19fb9b"/></linearGradient></defs><path d="M100.5 75.4 83.8 92.8q-.5.6-1.3.9-.7.3-1.5.3H1.9q-.5 0-1-.3t-.7-.8q-.3-.6-.2-1.1.1-.6.5-1l16.7-17.4q.6-.6 1.3-.9.7-.3 1.5-.3h79.1q.5 0 1 .3t.7.8q.3.6.2 1.1-.1.6-.5 1zM83.8 40.3q-.5-.6-1.3-.9-.7-.3-1.5-.3H1.9q-.5 0-1 .3t-.7.8q-.3.6-.2 1.1.1.6.5 1l16.7 17.4q.6.6 1.3.9.7.3 1.5.3h79.1q.5 0 1-.3t.7-.8q.3-.6.2-1.1-.1-.6-.5-1zM1.9 27.8h79q.9 0 1.6-.3.7-.3 1.3-.9l16.7-17.4q.3-.4.4-1 .1-.5-.1-1-.2-.6-.7-.9Q99.6 6 99 6H20q-.8 0-1.5.3-.8.3-1.3.9L.5 24.6q-.4.5-.5 1-.1.6.1 1.1.3.5.7.8.5.3 1.1.3z" style="fill:url(#a)"/></svg>