<svg xmlns="http://www.w3.org/2000/svg" width="96" height="123" fill="none"><path fill="#fff" fill-rule="evenodd" d="M76.24 51.397a36.317 36.317 0 0 1 7.938 22.706c0 8.58-3.06 16.709-8.159 22.981l-.441.542-.115-.688c-.1-.582-.216-1.174-.352-1.766-2.554-11.22-10.873-20.839-24.567-28.631-9.248-5.249-14.541-11.561-15.931-18.742-.898-4.641-.231-9.303 1.059-13.297 1.289-3.99 3.206-7.336 4.837-9.348l5.328-6.513a2.336 2.336 0 0 1 3.618 0l26.79 32.756h-.005Zm8.425-6.508L48.96 1.234a1.706 1.706 0 0 0-2.64 0L10.618 44.89l-.116.145A47.333 47.333 0 0 0 0 74.83c0 26.268 21.33 47.564 47.639 47.564 26.308 0 47.639-21.296 47.639-47.564a47.308 47.308 0 0 0-10.503-29.79l-.115-.146.005-.005Zm-65.502 6.367 3.191-3.908.096.722c.075.572.17 1.144.28 1.721 2.068 10.844 9.45 19.88 21.788 26.88 10.728 6.107 16.975 13.127 18.771 20.824.753 3.212.883 6.373.557 9.138l-.02.17-.155.076a36.475 36.475 0 0 1-16.037 3.693c-20.177 0-36.535-16.328-36.535-36.475 0-8.65 3.016-16.593 8.054-22.85l.01.01Z" clip-rule="evenodd"/></svg>