<svg xmlns="http://www.w3.org/2000/svg" width="298" height="225" fill="none"><path fill="#000" d="M68.546 13.942h5.421V0h-5.421a43.722 43.722 0 0 0-43.761 43.76v31.756A26.334 26.334 0 0 1 0 101.85l.387 6.971L0 115.792a26.333 26.333 0 0 1 24.785 26.334v36.596a45.813 45.813 0 0 0 45.697 45.891v-13.942a31.775 31.775 0 0 1-31.756-31.755v-36.79a40.221 40.221 0 0 0-17.62-33.305 40.466 40.466 0 0 0 17.62-33.305V43.761a29.954 29.954 0 0 1 29.82-29.82ZM229.648 13.941h-5.421V0h5.421a43.682 43.682 0 0 1 43.567 43.76v31.756A26.33 26.33 0 0 0 298 101.85l-.387 6.971.387 6.971a26.338 26.338 0 0 0-24.785 26.334v36.596a45.81 45.81 0 0 1-45.697 45.891v-13.942a31.774 31.774 0 0 0 31.756-31.755v-36.79a40.212 40.212 0 0 1 17.62-33.305 40.464 40.464 0 0 1-17.62-33.305V43.761a29.676 29.676 0 0 0-8.62-21.063 29.656 29.656 0 0 0-21.006-8.757ZM199.828 56.153h20.719l-43.18 40.47a42.137 42.137 0 0 1-56.541 0l-43.18-40.47h20.72l32.723 30.594a26.49 26.49 0 0 0 35.822 0l32.917-30.594ZM98.172 168.459H77.453l43.374-40.663a41.727 41.727 0 0 1 56.54 0l43.374 40.663h-20.719l-32.917-30.981a26.49 26.49 0 0 0-35.822 0l-33.111 30.981Z"/></svg>