<svg width="126" height="32" viewBox="0 0 126 32" fill="none" xmlns="http://www.w3.org/2000/svg">
<path d="M115.546 25.6818V12.1818H118.231V13.8309H118.352C118.471 13.5667 118.644 13.2983 118.87 13.0255C119.1 12.7486 119.398 12.5184 119.765 12.3352C120.136 12.1477 120.596 12.054 121.145 12.054C121.861 12.054 122.522 12.2415 123.127 12.6165C123.732 12.9872 124.216 13.5476 124.578 14.2976C124.94 15.0433 125.121 15.9787 125.121 17.1037C125.121 18.1988 124.944 19.1236 124.591 19.8778C124.241 20.6278 123.764 21.1967 123.159 21.5845C122.558 21.968 121.885 22.1598 121.139 22.1598C120.611 22.1598 120.161 22.0724 119.79 21.8977C119.424 21.723 119.123 21.5035 118.889 21.2393C118.655 20.9709 118.476 20.7003 118.352 20.4275H118.269V25.6818H115.546ZM118.212 17.0909C118.212 17.6747 118.292 18.1839 118.454 18.6186C118.616 19.0532 118.851 19.392 119.158 19.6349C119.464 19.8736 119.837 19.9929 120.276 19.9929C120.719 19.9929 121.094 19.8714 121.401 19.6285C121.708 19.3814 121.94 19.0405 122.098 18.6058C122.26 18.1669 122.341 17.6619 122.341 17.0909C122.341 16.5241 122.262 16.0255 122.104 15.5951C121.947 15.1648 121.714 14.8281 121.408 14.5852C121.101 14.3423 120.724 14.2209 120.276 14.2209C119.833 14.2209 119.458 14.338 119.151 14.5724C118.849 14.8068 118.616 15.1392 118.454 15.5696C118.292 16 118.212 16.5071 118.212 17.0909Z" fill="#FDFDFC"/>
<path d="M108.704 22.1853C108.078 22.1853 107.52 22.0767 107.03 21.8594C106.54 21.6378 106.152 21.3118 105.866 20.8814C105.585 20.4467 105.444 19.9055 105.444 19.2578C105.444 18.7123 105.545 18.2542 105.745 17.8835C105.945 17.5128 106.218 17.2145 106.563 16.9886C106.908 16.7628 107.3 16.5923 107.739 16.4773C108.182 16.3622 108.647 16.2812 109.133 16.2344C109.704 16.1747 110.164 16.1193 110.513 16.0682C110.863 16.0128 111.116 15.9318 111.274 15.8253C111.432 15.7187 111.51 15.5611 111.51 15.3523V15.3139C111.51 14.9091 111.383 14.5959 111.127 14.3743C110.876 14.1527 110.518 14.0419 110.053 14.0419C109.563 14.0419 109.173 14.1505 108.883 14.3679C108.594 14.5809 108.402 14.8494 108.308 15.1733L105.79 14.9687C105.917 14.3721 106.169 13.8565 106.544 13.4219C106.919 12.9829 107.402 12.6463 107.995 12.4119C108.591 12.1733 109.282 12.054 110.066 12.054C110.611 12.054 111.133 12.1179 111.632 12.2457C112.135 12.3736 112.58 12.5717 112.968 12.8402C113.36 13.1086 113.669 13.4538 113.895 13.8757C114.121 14.2933 114.233 14.794 114.233 15.3778V22H111.651V20.6385H111.574C111.417 20.9453 111.206 21.2159 110.942 21.4503C110.677 21.6804 110.36 21.8615 109.989 21.9936C109.618 22.1214 109.19 22.1853 108.704 22.1853ZM109.484 20.3061C109.885 20.3061 110.238 20.2273 110.545 20.0696C110.852 19.9076 111.093 19.6903 111.268 19.4176C111.442 19.1449 111.53 18.8359 111.53 18.4907V17.4488C111.444 17.5042 111.327 17.5554 111.178 17.6023C111.033 17.6449 110.869 17.6853 110.686 17.7237C110.503 17.7578 110.319 17.7898 110.136 17.8196C109.953 17.8451 109.787 17.8686 109.638 17.8899C109.318 17.9368 109.039 18.0113 108.8 18.1136C108.562 18.2159 108.376 18.3544 108.244 18.5291C108.112 18.6996 108.046 18.9126 108.046 19.1683C108.046 19.539 108.18 19.8224 108.449 20.0184C108.721 20.2102 109.067 20.3061 109.484 20.3061Z" fill="#FDFDFC"/>
<path d="M93.3309 22L90.659 12.1818H93.414L94.9353 18.7784H95.0248L96.61 12.1818H99.3138L100.925 18.7401H101.008L102.503 12.1818H105.252L102.587 22H99.7037L98.0162 15.8253H97.8948L96.2073 22H93.3309Z" fill="#FDFDFC"/>
<path d="M90.2557 14.9815L87.7628 15.1349C87.7202 14.9219 87.6285 14.7301 87.4879 14.5596C87.3473 14.3849 87.1619 14.2464 86.9318 14.1442C86.706 14.0376 86.4354 13.9844 86.12 13.9844C85.6981 13.9844 85.3423 14.0738 85.0525 14.2528C84.7628 14.4275 84.6179 14.6619 84.6179 14.9559C84.6179 15.1903 84.7116 15.3885 84.8991 15.5504C85.0866 15.7123 85.4084 15.8423 85.8643 15.9403L87.6413 16.2983C88.5959 16.4943 89.3075 16.8096 89.7763 17.2443C90.245 17.679 90.4794 18.25 90.4794 18.9574C90.4794 19.6008 90.2898 20.1655 89.9105 20.6513C89.5355 21.1371 89.0199 21.5163 88.3636 21.789C87.7116 22.0575 86.9595 22.1917 86.1072 22.1917C84.8075 22.1917 83.772 21.9211 83.0007 21.38C82.2337 20.8345 81.7841 20.093 81.652 19.1555L84.3302 19.0149C84.4112 19.4112 84.6072 19.7138 84.9183 19.9226C85.2294 20.1271 85.6278 20.2294 86.1136 20.2294C86.5909 20.2294 86.9744 20.1378 87.2642 19.9545C87.5582 19.767 87.7074 19.5263 87.7116 19.2322C87.7074 18.9851 87.603 18.7826 87.3984 18.625C87.1939 18.463 86.8785 18.3395 86.4524 18.2542L84.7521 17.9155C83.7933 17.7237 83.0795 17.3913 82.6108 16.9183C82.1463 16.4453 81.9141 15.8423 81.9141 15.1094C81.9141 14.4787 82.0845 13.9353 82.4254 13.4794C82.7706 13.0234 83.2543 12.6719 83.8764 12.4247C84.5028 12.1775 85.2358 12.054 86.0753 12.054C87.3153 12.054 88.2912 12.316 89.0028 12.8402C89.7187 13.3643 90.1364 14.0781 90.2557 14.9815Z" fill="#FDFDFC"/>
<path d="M0 10C0 4.47715 4.47715 0 10 0H60.4575C63.9054 0 67.1101 1.7762 68.9375 4.70001L76 16L68.9375 27.3C67.1101 30.2238 63.9054 32 60.4575 32H10C4.47715 32 0 27.5228 0 22V10Z" fill="#E5484D"/>
<path d="M49.8632 25.6818V12.1818H52.5479V13.8309H52.6693C52.7886 13.5667 52.9612 13.2983 53.1871 13.0255C53.4172 12.7486 53.7155 12.5184 54.082 12.3352C54.4527 12.1477 54.9129 12.054 55.4627 12.054C56.1786 12.054 56.8391 12.2415 57.4442 12.6165C58.0493 12.9872 58.533 13.5476 58.8952 14.2976C59.2574 15.0433 59.4385 15.9787 59.4385 17.1037C59.4385 18.1988 59.2617 19.1236 58.908 19.8778C58.5585 20.6278 58.0813 21.1967 57.4761 21.5845C56.8753 21.968 56.202 22.1598 55.4563 22.1598C54.9279 22.1598 54.4783 22.0724 54.1075 21.8977C53.7411 21.723 53.4406 21.5035 53.2063 21.2393C52.9719 20.9709 52.7929 20.7003 52.6693 20.4275H52.5862V25.6818H49.8632ZM52.5287 17.0909C52.5287 17.6747 52.6097 18.1839 52.7716 18.6186C52.9335 19.0532 53.1679 19.392 53.4747 19.6349C53.7815 19.8736 54.1544 19.9929 54.5933 19.9929C55.0365 19.9929 55.4115 19.8714 55.7183 19.6285C56.0252 19.3814 56.2574 19.0405 56.4151 18.6058C56.577 18.1669 56.658 17.6619 56.658 17.0909C56.658 16.5241 56.5791 16.0255 56.4215 15.5951C56.2638 15.1648 56.0315 14.8281 55.7247 14.5852C55.4179 14.3423 55.0408 14.2209 54.5933 14.2209C54.1502 14.2209 53.7752 14.338 53.4683 14.5724C53.1658 14.8068 52.9335 15.1392 52.7716 15.5696C52.6097 16 52.5287 16.5071 52.5287 17.0909Z" fill="white"/>
<path d="M34.2452 22V12.1818H36.8404V13.914H36.9555C37.16 13.3388 37.5009 12.8849 37.9782 12.5525C38.4555 12.2201 39.0265 12.054 39.6913 12.054C40.3646 12.054 40.9377 12.2223 41.4107 12.5589C41.8837 12.8913 42.1991 13.343 42.3567 13.914H42.459C42.6593 13.3515 43.0215 12.902 43.5457 12.5653C44.0741 12.2244 44.6984 12.054 45.4185 12.054C46.3347 12.054 47.0783 12.3459 47.6494 12.9297C48.2246 13.5092 48.5123 14.3317 48.5123 15.397V22H45.7957V15.9339C45.7957 15.3885 45.6508 14.9794 45.361 14.7067C45.0712 14.4339 44.709 14.2976 44.2744 14.2976C43.78 14.2976 43.3944 14.4552 43.1174 14.7706C42.8404 15.0817 42.7019 15.4929 42.7019 16.0042V22H40.062V15.8764C40.062 15.3949 39.9235 15.0113 39.6465 14.7258C39.3738 14.4403 39.0137 14.2976 38.5663 14.2976C38.2637 14.2976 37.991 14.3743 37.7481 14.5277C37.5094 14.6768 37.3198 14.8878 37.1792 15.1605C37.0386 15.429 36.9683 15.7443 36.9683 16.1065V22H34.2452Z" fill="white"/>
<path d="M30.1441 17.8196V12.1818H32.8671V22H30.2528V20.2166H30.1505C29.9289 20.7919 29.5603 21.2543 29.0447 21.6037C28.5333 21.9531 27.909 22.1278 27.1718 22.1278C26.5156 22.1278 25.9382 21.9787 25.4396 21.6804C24.941 21.3821 24.5511 20.9581 24.2698 20.4084C23.9928 19.8587 23.8522 19.2003 23.848 18.4332V12.1818H26.571V17.9474C26.5752 18.527 26.7308 18.9851 27.0376 19.3217C27.3444 19.6584 27.7556 19.8267 28.2713 19.8267C28.5994 19.8267 28.9062 19.7521 29.1917 19.603C29.4772 19.4496 29.7073 19.2237 29.8821 18.9254C30.061 18.6271 30.1484 18.2585 30.1441 17.8196Z" fill="white"/>
<path d="M17.2827 22V12.1818H19.9227V13.8949H20.0249C20.2039 13.2855 20.5043 12.8253 20.9262 12.5142C21.3481 12.1989 21.8339 12.0412 22.3836 12.0412C22.52 12.0412 22.667 12.0497 22.8246 12.0668C22.9823 12.0838 23.1208 12.1073 23.2401 12.1371V14.5533C23.1123 14.5149 22.9354 14.4808 22.7096 14.451C22.4837 14.4212 22.2771 14.4063 22.0896 14.4063C21.689 14.4063 21.331 14.4936 21.0157 14.6683C20.7046 14.8388 20.4575 15.0774 20.2742 15.3842C20.0952 15.6911 20.0058 16.0447 20.0058 16.4453V22H17.2827Z" fill="white"/>
<path d="M16.3089 12.1818V14.2273H10.3963V12.1818H16.3089ZM11.7386 9.82953H14.4616V18.9829C14.4616 19.2344 14.5 19.4304 14.5767 19.571C14.6534 19.7074 14.7599 19.8033 14.8963 19.8586C15.0369 19.914 15.1989 19.9417 15.3821 19.9417C15.5099 19.9417 15.6378 19.9311 15.7656 19.9098C15.8935 19.8842 15.9915 19.865 16.0597 19.8523L16.4879 21.8785C16.3516 21.9211 16.1598 21.9702 15.9126 22.0256C15.6655 22.0852 15.3651 22.1214 15.0114 22.1342C14.3551 22.1598 13.7798 22.0724 13.2855 21.8721C12.7954 21.6719 12.4141 21.3608 12.1413 20.9389C11.8686 20.517 11.7344 19.9844 11.7386 19.3409V9.82953Z" fill="white"/>
</svg>
