<svg fill="none" height="56" viewBox="0 0 56 56" width="56" xmlns="http://www.w3.org/2000/svg"><path d="m28 56c15.464 0 28-12.536 28-28s-12.536-28-28-28-28 12.536-28 28 12.536 28 28 28z" fill="#0098ea"/><path d="m37.5603 15.6277h-19.1217c-3.5158 0-5.7442 3.7925-3.9754 6.8584l11.8012 20.4548c.7701 1.3356 2.7 1.3356 3.4701 0l11.8036-20.4548c1.7664-3.061-.462-6.8584-3.9754-6.8584zm-11.3055 21.1791-2.5701-4.9741-6.2014-11.0913c-.4091-.7099.0962-1.6196.9529-1.6196h7.8162v17.6874zm12.256-16.0678-6.199 11.0961-2.5701 4.9717v-17.6874h7.8162c.8567 0 1.362.9097.9529 1.6196z" fill="#fff"/></svg>