<svg width="120" height="32" viewBox="0 0 120 32" fill="none" xmlns="http://www.w3.org/2000/svg">
<path d="M109.546 25.6818V12.1818H112.231V13.8309H112.352C112.471 13.5667 112.644 13.2983 112.87 13.0255C113.1 12.7486 113.398 12.5184 113.765 12.3352C114.136 12.1477 114.596 12.054 115.145 12.054C115.861 12.054 116.522 12.2415 117.127 12.6165C117.732 12.9872 118.216 13.5476 118.578 14.2976C118.94 15.0433 119.121 15.9787 119.121 17.1037C119.121 18.1988 118.944 19.1236 118.591 19.8778C118.241 20.6278 117.764 21.1967 117.159 21.5845C116.558 21.968 115.885 22.1598 115.139 22.1598C114.611 22.1598 114.161 22.0724 113.79 21.8977C113.424 21.723 113.123 21.5035 112.889 21.2393C112.655 20.9709 112.476 20.7003 112.352 20.4275H112.269V25.6818H109.546ZM112.212 17.0909C112.212 17.6747 112.292 18.1839 112.454 18.6186C112.616 19.0532 112.851 19.392 113.158 19.6349C113.464 19.8736 113.837 19.9929 114.276 19.9929C114.719 19.9929 115.094 19.8714 115.401 19.6285C115.708 19.3814 115.94 19.0405 116.098 18.6058C116.26 18.1669 116.341 17.6619 116.341 17.0909C116.341 16.5241 116.262 16.0255 116.104 15.5951C115.947 15.1648 115.714 14.8281 115.408 14.5852C115.101 14.3423 114.724 14.2209 114.276 14.2209C113.833 14.2209 113.458 14.338 113.151 14.5724C112.849 14.8068 112.616 15.1392 112.454 15.5696C112.292 16 112.212 16.5071 112.212 17.0909Z" fill="#FDFDFC"/>
<path d="M102.704 22.1853C102.078 22.1853 101.52 22.0767 101.03 21.8594C100.54 21.6378 100.152 21.3118 99.8663 20.8814C99.585 20.4467 99.4444 19.9055 99.4444 19.2578C99.4444 18.7123 99.5445 18.2542 99.7448 17.8835C99.9451 17.5128 100.218 17.2145 100.563 16.9886C100.908 16.7628 101.3 16.5923 101.739 16.4773C102.182 16.3622 102.647 16.2812 103.133 16.2344C103.704 16.1747 104.164 16.1193 104.513 16.0682C104.863 16.0128 105.116 15.9318 105.274 15.8253C105.432 15.7187 105.51 15.5611 105.51 15.3523V15.3139C105.51 14.9091 105.383 14.5959 105.127 14.3743C104.876 14.1527 104.518 14.0419 104.053 14.0419C103.563 14.0419 103.173 14.1505 102.883 14.3679C102.594 14.5809 102.402 14.8494 102.308 15.1733L99.7896 14.9687C99.9174 14.3721 100.169 13.8565 100.544 13.4219C100.919 12.9829 101.402 12.6463 101.995 12.4119C102.591 12.1733 103.282 12.054 104.066 12.054C104.611 12.054 105.133 12.1179 105.632 12.2457C106.135 12.3736 106.58 12.5717 106.968 12.8402C107.36 13.1086 107.669 13.4538 107.895 13.8757C108.121 14.2933 108.233 14.794 108.233 15.3778V22H105.651V20.6385H105.574C105.417 20.9453 105.206 21.2159 104.942 21.4503C104.677 21.6804 104.36 21.8615 103.989 21.9936C103.618 22.1214 103.19 22.1853 102.704 22.1853ZM103.484 20.3061C103.885 20.3061 104.238 20.2273 104.545 20.0696C104.852 19.9076 105.093 19.6903 105.268 19.4176C105.442 19.1449 105.53 18.8359 105.53 18.4907V17.4488C105.444 17.5042 105.327 17.5554 105.178 17.6023C105.033 17.6449 104.869 17.6853 104.686 17.7237C104.503 17.7578 104.319 17.7898 104.136 17.8196C103.953 17.8451 103.787 17.8686 103.638 17.8899C103.318 17.9368 103.039 18.0113 102.8 18.1136C102.562 18.2159 102.376 18.3544 102.244 18.5291C102.112 18.6996 102.046 18.9126 102.046 19.1683C102.046 19.539 102.18 19.8224 102.449 20.0184C102.721 20.2102 103.067 20.3061 103.484 20.3061Z" fill="#FDFDFC"/>
<path d="M87.3309 22L84.659 12.1818H87.414L88.9353 18.7784H89.0248L90.61 12.1818H93.3138L94.9246 18.7401H95.0077L96.5035 12.1818H99.252L96.5866 22H93.7037L92.0162 15.8253H91.8948L90.2073 22H87.3309Z" fill="#FDFDFC"/>
<path d="M84.2557 14.9815L81.7628 15.1349C81.7202 14.9219 81.6285 14.7301 81.4879 14.5596C81.3473 14.3849 81.1619 14.2464 80.9318 14.1442C80.706 14.0376 80.4354 13.9844 80.12 13.9844C79.6981 13.9844 79.3423 14.0738 79.0525 14.2528C78.7628 14.4275 78.6179 14.6619 78.6179 14.9559C78.6179 15.1903 78.7116 15.3885 78.8991 15.5504C79.0866 15.7123 79.4084 15.8423 79.8643 15.9403L81.6413 16.2983C82.5959 16.4943 83.3075 16.8096 83.7763 17.2443C84.245 17.679 84.4794 18.25 84.4794 18.9574C84.4794 19.6008 84.2898 20.1655 83.9105 20.6513C83.5355 21.1371 83.0199 21.5163 82.3636 21.789C81.7116 22.0575 80.9595 22.1917 80.1072 22.1917C78.8075 22.1917 77.772 21.9211 77.0007 21.38C76.2337 20.8345 75.7841 20.093 75.652 19.1555L78.3302 19.0149C78.4112 19.4112 78.6072 19.7138 78.9183 19.9226C79.2294 20.1271 79.6278 20.2294 80.1136 20.2294C80.5909 20.2294 80.9744 20.1378 81.2642 19.9545C81.5582 19.767 81.7074 19.5263 81.7116 19.2322C81.7074 18.9851 81.603 18.7826 81.3984 18.625C81.1939 18.463 80.8785 18.3395 80.4524 18.2542L78.7521 17.9155C77.7933 17.7237 77.0795 17.3913 76.6108 16.9183C76.1463 16.4453 75.9141 15.8423 75.9141 15.1094C75.9141 14.4787 76.0845 13.9353 76.4254 13.4794C76.7706 13.0234 77.2543 12.6719 77.8764 12.4247C78.5028 12.1775 79.2358 12.054 80.0753 12.054C81.3153 12.054 82.2912 12.316 83.0028 12.8402C83.7187 13.3643 84.1364 14.0781 84.2557 14.9815Z" fill="#FDFDFC"/>
<path d="M0 10C0 4.47715 4.47715 0 10 0H54.4575C57.9054 0 61.1101 1.7762 62.9375 4.70001L70 16L62.9375 27.3C61.1101 30.2238 57.9054 32 54.4575 32H10C4.47715 32 0 27.5228 0 22V10Z" fill="#FFC53D"/>
<path d="M49.3247 22.1918C48.3318 22.1918 47.4731 21.9809 46.7487 21.559C46.0285 21.1329 45.4724 20.5405 45.0803 19.782C44.6883 19.0192 44.4923 18.135 44.4923 17.1293C44.4923 16.1151 44.6883 15.2287 45.0803 14.4702C45.4724 13.7074 46.0285 13.1151 46.7487 12.6932C47.4731 12.2671 48.3318 12.054 49.3247 12.054C50.3176 12.054 51.1741 12.2671 51.8943 12.6932C52.6187 13.1151 53.1769 13.7074 53.569 14.4702C53.961 15.2287 54.1571 16.1151 54.1571 17.1293C54.1571 18.135 53.961 19.0192 53.569 19.782C53.1769 20.5405 52.6187 21.1329 51.8943 21.559C51.1741 21.9809 50.3176 22.1918 49.3247 22.1918ZM49.3374 20.0824C49.7892 20.0824 50.1663 19.9546 50.4688 19.6989C50.7714 19.439 50.9994 19.0853 51.1528 18.6378C51.3105 18.1904 51.3893 17.6811 51.3893 17.1101C51.3893 16.5391 51.3105 16.0299 51.1528 15.5824C50.9994 15.135 50.7714 14.7813 50.4688 14.5213C50.1663 14.2614 49.7892 14.1314 49.3374 14.1314C48.8815 14.1314 48.498 14.2614 48.1869 14.5213C47.8801 14.7813 47.6478 15.135 47.4901 15.5824C47.3367 16.0299 47.26 16.5391 47.26 17.1101C47.26 17.6811 47.3367 18.1904 47.4901 18.6378C47.6478 19.0853 47.8801 19.439 48.1869 19.6989C48.498 19.9546 48.8815 20.0824 49.3374 20.0824Z" fill="#21201C"/>
<path d="M34.2964 22V8.90912H37.0194V13.831H37.1025C37.2218 13.5668 37.3944 13.2983 37.6202 13.0256C37.8504 12.7486 38.1487 12.5185 38.5151 12.3353C38.8859 12.1478 39.3461 12.054 39.8958 12.054C40.6117 12.054 41.2722 12.2415 41.8774 12.6165C42.4825 12.9872 42.9661 13.5476 43.3283 14.2976C43.6906 15.0434 43.8717 15.9787 43.8717 17.1037C43.8717 18.1989 43.6948 19.1236 43.3411 19.8779C42.9917 20.6279 42.5144 21.1968 41.9093 21.5845C41.3085 21.9681 40.6352 22.1598 39.8894 22.1598C39.361 22.1598 38.9114 22.0725 38.5407 21.8978C38.1742 21.723 37.8738 21.5036 37.6394 21.2394C37.4051 20.9709 37.2261 20.7003 37.1025 20.4276H36.981V22H34.2964ZM36.9619 17.0909C36.9619 17.6747 37.0428 18.184 37.2048 18.6186C37.3667 19.0533 37.6011 19.3921 37.9079 19.635C38.2147 19.8736 38.5876 19.9929 39.0265 19.9929C39.4697 19.9929 39.8447 19.8715 40.1515 19.6286C40.4583 19.3814 40.6906 19.0405 40.8482 18.6059C41.0102 18.1669 41.0911 17.662 41.0911 17.0909C41.0911 16.5242 41.0123 16.0256 40.8546 15.5952C40.697 15.1648 40.4647 14.8282 40.1579 14.5853C39.8511 14.3424 39.4739 14.2209 39.0265 14.2209C38.5833 14.2209 38.2083 14.3381 37.9015 14.5725C37.5989 14.8068 37.3667 15.1392 37.2048 15.5696C37.0428 16 36.9619 16.5071 36.9619 17.0909Z" fill="#21201C"/>
<path d="M27.68 22V12.1818H30.3199V13.8949H30.4222C30.6012 13.2855 30.9016 12.8253 31.3235 12.5142C31.7453 12.1989 32.2311 12.0412 32.7808 12.0412C32.9172 12.0412 33.0642 12.0497 33.2219 12.0668C33.3796 12.0838 33.5181 12.1073 33.6374 12.1371V14.5533C33.5095 14.5149 33.3327 14.4808 33.1068 14.451C32.881 14.4212 32.6743 14.4063 32.4868 14.4063C32.0862 14.4063 31.7283 14.4936 31.4129 14.6683C31.1019 14.8388 30.8547 15.0774 30.6715 15.3842C30.4925 15.6911 30.403 16.0447 30.403 16.4453V22H27.68Z" fill="#21201C"/>
<path d="M23.5789 17.8196V12.1818H26.3019V22H23.6876V20.2166H23.5853C23.3637 20.7919 22.9951 21.2543 22.4795 21.6037C21.9681 21.9531 21.3438 22.1278 20.6066 22.1278C19.9504 22.1278 19.3729 21.9787 18.8744 21.6804C18.3758 21.3821 17.9859 20.9581 17.7046 20.4084C17.4276 19.8587 17.287 19.2003 17.2827 18.4332V12.1818H20.0058V17.9474C20.01 18.527 20.1656 18.9851 20.4724 19.3217C20.7792 19.6584 21.1904 19.8267 21.706 19.8267C22.0342 19.8267 22.341 19.7521 22.6265 19.603C22.912 19.4496 23.1421 19.2237 23.3168 18.9254C23.4958 18.6271 23.5832 18.2585 23.5789 17.8196Z" fill="#21201C"/>
<path d="M16.3089 12.1819V14.2273H10.3963V12.1819H16.3089ZM11.7386 9.82959H14.4616V18.983C14.4616 19.2344 14.5 19.4304 14.5767 19.5711C14.6534 19.7074 14.7599 19.8033 14.8963 19.8587C15.0369 19.9141 15.1989 19.9418 15.3821 19.9418C15.5099 19.9418 15.6378 19.9312 15.7656 19.9098C15.8935 19.8843 15.9915 19.8651 16.0597 19.8523L16.4879 21.8786C16.3516 21.9212 16.1598 21.9702 15.9126 22.0256C15.6655 22.0853 15.3651 22.1215 15.0114 22.1343C14.3551 22.1598 13.7798 22.0725 13.2855 21.8722C12.7954 21.6719 12.4141 21.3608 12.1413 20.939C11.8686 20.5171 11.7344 19.9844 11.7386 19.341V9.82959Z" fill="#21201C"/>
</svg>
