<svg width="125" height="32" viewBox="0 0 125 32" fill="none" xmlns="http://www.w3.org/2000/svg">
<path d="M124.276 14.9815L121.783 15.1349C121.74 14.9219 121.649 14.7301 121.508 14.5596C121.368 14.3849 121.182 14.2464 120.952 14.1442C120.726 14.0376 120.456 13.9844 120.14 13.9844C119.718 13.9844 119.363 14.0738 119.073 14.2528C118.783 14.4275 118.638 14.6619 118.638 14.9559C118.638 15.1903 118.732 15.3885 118.919 15.5504C119.107 15.7123 119.429 15.8423 119.885 15.9403L121.662 16.2983C122.616 16.4943 123.328 16.8096 123.797 17.2443C124.265 17.679 124.5 18.25 124.5 18.9574C124.5 19.6008 124.31 20.1655 123.931 20.6513C123.556 21.1371 123.04 21.5163 122.384 21.789C121.732 22.0575 120.98 22.1917 120.128 22.1917C118.828 22.1917 117.792 21.9211 117.021 21.38C116.254 20.8345 115.804 20.093 115.672 19.1555L118.351 19.0149C118.432 19.4112 118.628 19.7138 118.939 19.9226C119.25 20.1271 119.648 20.2294 120.134 20.2294C120.611 20.2294 120.995 20.1378 121.285 19.9545C121.579 19.767 121.728 19.5263 121.732 19.2322C121.728 18.9851 121.623 18.7826 121.419 18.625C121.214 18.463 120.899 18.3395 120.473 18.2542L118.772 17.9155C117.814 17.7237 117.1 17.3913 116.631 16.9183C116.167 16.4453 115.934 15.8423 115.934 15.1094C115.934 14.4787 116.105 13.9353 116.446 13.4794C116.791 13.0234 117.275 12.6719 117.897 12.4247C118.523 12.1775 119.256 12.054 120.096 12.054C121.336 12.054 122.312 12.316 123.023 12.8402C123.739 13.3643 124.157 14.0781 124.276 14.9815Z" fill="#FDFDFC"/>
<path d="M115.256 12.1818V14.2273H109.344V12.1818H115.256ZM110.686 9.82953H113.409V18.9829C113.409 19.2344 113.447 19.4304 113.524 19.571C113.601 19.7074 113.707 19.8033 113.844 19.8586C113.984 19.914 114.146 19.9417 114.329 19.9417C114.457 19.9417 114.585 19.9311 114.713 19.9098C114.841 19.8842 114.939 19.865 115.007 19.8523L115.435 21.8785C115.299 21.9211 115.107 21.9702 114.86 22.0256C114.613 22.0852 114.312 22.1214 113.959 22.1342C113.302 22.1598 112.727 22.0724 112.233 21.8721C111.743 21.6719 111.361 21.3608 111.089 20.9389C110.816 20.517 110.682 19.9844 110.686 19.3409V9.82953Z" fill="#FDFDFC"/>
<path d="M102.36 16.3238V22H99.6367V12.1818H102.232V13.914H102.347C102.564 13.343 102.929 12.8913 103.44 12.5589C103.951 12.2223 104.571 12.054 105.3 12.054C105.982 12.054 106.576 12.2031 107.083 12.5014C107.59 12.7997 107.985 13.2258 108.266 13.7798C108.547 14.3295 108.688 14.9858 108.688 15.7486V22H105.965V16.2344C105.969 15.6335 105.816 15.1648 105.505 14.8281C105.193 14.4872 104.765 14.3167 104.22 14.3167C103.853 14.3167 103.529 14.3956 103.248 14.5532C102.971 14.7109 102.754 14.941 102.596 15.2436C102.443 15.5419 102.364 15.902 102.36 16.3238Z" fill="#FDFDFC"/>
<path d="M94.1533 22.1917C93.1433 22.1917 92.274 21.9872 91.5453 21.5781C90.8209 21.1648 90.2626 20.5809 89.8706 19.8267C89.4786 19.0682 89.2825 18.1711 89.2825 17.1356C89.2825 16.1257 89.4786 15.2393 89.8706 14.4765C90.2626 13.7138 90.8145 13.1193 91.5261 12.6932C92.242 12.267 93.0815 12.054 94.0446 12.054C94.6923 12.054 95.2953 12.1584 95.8536 12.3672C96.4161 12.5717 96.9061 12.8807 97.3237 13.294C97.7456 13.7074 98.0737 14.2273 98.3081 14.8537C98.5425 15.4758 98.6597 16.2045 98.6597 17.0398V17.7876H90.3692V16.1001H96.0965C96.0965 15.7081 96.0112 15.3608 95.8408 15.0582C95.6703 14.7557 95.4338 14.5192 95.1313 14.3487C94.833 14.174 94.4857 14.0866 94.0894 14.0866C93.676 14.0866 93.3095 14.1825 92.9899 14.3743C92.6746 14.5618 92.4274 14.8153 92.2484 15.1349C92.0695 15.4503 91.9778 15.8018 91.9736 16.1896V17.794C91.9736 18.2798 92.0631 18.6996 92.2421 19.0532C92.4253 19.4069 92.6831 19.6797 93.0155 19.8714C93.3479 20.0632 93.742 20.1591 94.198 20.1591C94.5006 20.1591 94.7776 20.1165 95.029 20.0312C95.2804 19.946 95.4956 19.8182 95.6746 19.6477C95.8536 19.4773 95.9899 19.2684 96.0837 19.0213L98.6021 19.1875C98.4743 19.7926 98.2122 20.321 97.8159 20.7727C97.4239 21.2201 96.9168 21.5696 96.2946 21.821C95.6767 22.0682 94.9629 22.1917 94.1533 22.1917Z" fill="#FDFDFC"/>
<path d="M88.8105 12.1818V14.2273H82.8979V12.1818H88.8105ZM84.2402 9.82953H86.9632V18.9829C86.9632 19.2344 87.0016 19.4304 87.0783 19.571C87.155 19.7074 87.2615 19.8033 87.3979 19.8586C87.5385 19.914 87.7004 19.9417 87.8837 19.9417C88.0115 19.9417 88.1394 19.9311 88.2672 19.9098C88.395 19.8842 88.4931 19.865 88.5612 19.8523L88.9895 21.8785C88.8531 21.9211 88.6614 21.9702 88.4142 22.0256C88.1671 22.0852 87.8666 22.1214 87.5129 22.1342C86.8567 22.1598 86.2814 22.0724 85.7871 21.8721C85.297 21.6719 84.9156 21.3608 84.6429 20.9389C84.3702 20.517 84.236 19.9844 84.2402 19.3409V9.82953Z" fill="#FDFDFC"/>
<path d="M75.9139 16.3238V22H73.1909V12.1818H75.7861V13.914H75.9011C76.1185 13.343 76.4828 12.8913 76.9942 12.5589C77.5055 12.2223 78.1256 12.054 78.8543 12.054C79.5361 12.054 80.1305 12.2031 80.6377 12.5014C81.1448 12.7997 81.5389 13.2258 81.8202 13.7798C82.1014 14.3295 82.2421 14.9858 82.2421 15.7486V22H79.519V16.2344C79.5233 15.6335 79.3699 15.1648 79.0588 14.8281C78.7477 14.4872 78.3195 14.3167 77.774 14.3167C77.4075 14.3167 77.0837 14.3956 76.8024 14.5532C76.5254 14.7109 76.3081 14.941 76.1504 15.2436C75.997 15.5419 75.9182 15.902 75.9139 16.3238Z" fill="#FDFDFC"/>
<path d="M69.0866 22V12.1818H71.8097V22H69.0866ZM70.4545 10.9162C70.0497 10.9162 69.7024 10.7819 69.4126 10.5135C69.1271 10.2407 68.9844 9.91475 68.9844 9.53548C68.9844 9.16048 69.1271 8.83875 69.4126 8.57029C69.7024 8.29756 70.0497 8.16119 70.4545 8.16119C70.8594 8.16119 71.2045 8.29756 71.4901 8.57029C71.7798 8.83875 71.9247 9.16048 71.9247 9.53548C71.9247 9.91475 71.7798 10.2407 71.4901 10.5135C71.2045 10.7819 70.8594 10.9162 70.4545 10.9162Z" fill="#FDFDFC"/>
<path d="M0 10C0 4.47715 4.47715 0 10 0H47.4575C50.9054 0 54.1101 1.7762 55.9375 4.70001L63 16L55.9375 27.3C54.1101 30.2238 50.9054 32 47.4575 32H10C4.47715 32 0 27.5228 0 22V10Z" fill="#4DD092"/>
<path d="M41.0831 22V12.1818H43.723V13.8949H43.8253C44.0043 13.2855 44.3047 12.8253 44.7266 12.5142C45.1485 12.1989 45.6343 12.0412 46.184 12.0412C46.3203 12.0412 46.4674 12.0497 46.625 12.0668C46.7827 12.0838 46.9212 12.1073 47.0405 12.1371V14.5533C46.9127 14.5149 46.7358 14.4808 46.51 14.451C46.2841 14.4212 46.0774 14.4063 45.8899 14.4063C45.4894 14.4063 45.1314 14.4936 44.8161 14.6683C44.505 14.8388 44.2578 15.0774 44.0746 15.3842C43.8956 15.6911 43.8061 16.0447 43.8061 16.4453V22H41.0831Z" fill="#21201C"/>
<path d="M34.2414 22.1853C33.615 22.1853 33.0568 22.0767 32.5667 21.8594C32.0767 21.6378 31.6889 21.3118 31.4034 20.8814C31.1221 20.4467 30.9815 19.9055 30.9815 19.2578C30.9815 18.7123 31.0816 18.2542 31.2819 17.8835C31.4822 17.5128 31.7549 17.2145 32.1001 16.9886C32.4453 16.7628 32.8373 16.5923 33.2763 16.4773C33.7194 16.3622 34.1839 16.2812 34.6697 16.2344C35.2407 16.1747 35.701 16.1193 36.0504 16.0682C36.3998 16.0128 36.6534 15.9318 36.8111 15.8253C36.9687 15.7187 37.0476 15.5611 37.0476 15.3523V15.3139C37.0476 14.9091 36.9197 14.5959 36.664 14.3743C36.4126 14.1527 36.0547 14.0419 35.5902 14.0419C35.1001 14.0419 34.7102 14.1505 34.4204 14.3679C34.1307 14.5809 33.9389 14.8494 33.8451 15.1733L31.3267 14.9687C31.4545 14.3721 31.7059 13.8565 32.0809 13.4219C32.4559 12.9829 32.9396 12.6463 33.5319 12.4119C34.1285 12.1733 34.8189 12.054 35.603 12.054C36.1484 12.054 36.6704 12.1179 37.169 12.2457C37.6718 12.3736 38.1172 12.5717 38.5049 12.8402C38.897 13.1086 39.2059 13.4538 39.4318 13.8757C39.6576 14.2933 39.7706 14.794 39.7706 15.3778V22H37.1882V20.6385H37.1115C36.9538 20.9453 36.7429 21.2159 36.4787 21.4503C36.2145 21.6804 35.897 21.8615 35.5263 21.9936C35.1555 22.1214 34.7272 22.1853 34.2414 22.1853ZM35.0213 20.3061C35.4218 20.3061 35.7755 20.2273 36.0824 20.0696C36.3892 19.9076 36.6299 19.6903 36.8047 19.4176C36.9794 19.1449 37.0667 18.8359 37.0667 18.4907V17.4488C36.9815 17.5042 36.8643 17.5554 36.7152 17.6023C36.5703 17.6449 36.4062 17.6853 36.223 17.7237C36.0397 17.7578 35.8565 17.7898 35.6733 17.8196C35.49 17.8451 35.3238 17.8686 35.1747 17.8899C34.8551 17.9368 34.576 18.0113 34.3373 18.1136C34.0987 18.2159 33.9133 18.3544 33.7812 18.5291C33.6491 18.6996 33.5831 18.9126 33.5831 19.1683C33.5831 19.539 33.7173 19.8224 33.9858 20.0184C34.2585 20.2102 34.6037 20.3061 35.0213 20.3061Z" fill="#21201C"/>
<path d="M25.9583 22.1917C24.9484 22.1917 24.0791 21.9872 23.3504 21.5781C22.6259 21.1648 22.0677 20.5809 21.6757 19.8267C21.2836 19.0682 21.0876 18.1711 21.0876 17.1356C21.0876 16.1257 21.2836 15.2393 21.6757 14.4765C22.0677 13.7138 22.6195 13.1193 23.3312 12.6932C24.0471 12.267 24.8866 12.054 25.8497 12.054C26.4974 12.054 27.1004 12.1584 27.6586 12.3672C28.2211 12.5717 28.7112 12.8807 29.1288 13.294C29.5507 13.7074 29.8788 14.2273 30.1132 14.8537C30.3475 15.4758 30.4647 16.2045 30.4647 17.0398V17.7876H22.1742V16.1001H27.9015C27.9015 15.7081 27.8163 15.3608 27.6458 15.0582C27.4754 14.7557 27.2389 14.5192 26.9363 14.3487C26.638 14.174 26.2907 14.0866 25.8944 14.0866C25.4811 14.0866 25.1146 14.1825 24.795 14.3743C24.4796 14.5618 24.2325 14.8153 24.0535 15.1349C23.8745 15.4503 23.7829 15.8018 23.7786 16.1896V17.794C23.7786 18.2798 23.8681 18.6996 24.0471 19.0532C24.2303 19.4069 24.4882 19.6797 24.8205 19.8714C25.1529 20.0632 25.5471 20.1591 26.0031 20.1591C26.3056 20.1591 26.5826 20.1165 26.834 20.0312C27.0855 19.946 27.3007 19.8182 27.4796 19.6477C27.6586 19.4773 27.795 19.2684 27.8887 19.0213L30.4072 19.1875C30.2793 19.7926 30.0173 20.321 29.621 20.7727C29.2289 21.2201 28.7218 21.5696 28.0997 21.821C27.4818 22.0682 26.768 22.1917 25.9583 22.1917Z" fill="#21201C"/>
<path d="M13.8097 16.3238V22H11.0866V12.1818H13.6818V13.914H13.7969C14.0142 13.343 14.3785 12.8913 14.8899 12.5589C15.4013 12.2223 16.0213 12.054 16.75 12.054C17.4318 12.054 18.0263 12.2031 18.5334 12.5014C19.0405 12.7997 19.4347 13.2258 19.7159 13.7798C19.9972 14.3295 20.1378 14.9858 20.1378 15.7486V22H17.4148V16.2344C17.419 15.6335 17.2656 15.1648 16.9545 14.8281C16.6435 14.4872 16.2152 14.3167 15.6697 14.3167C15.3033 14.3167 14.9794 14.3956 14.6981 14.5532C14.4212 14.7109 14.2038 14.941 14.0462 15.2436C13.8927 15.5419 13.8139 15.902 13.8097 16.3238Z" fill="#21201C"/>
</svg>
